<?xml version="1.0" encoding="UTF-8"?>
<svg id="Capa_1" xmlns="http://www.w3.org/2000/svg" viewBox="0 0 220.4 253.66">
  <defs>
    <style>
      .cls-1 {
        fill: #010101;
      }

      .cls-2 {
        fill: #1e1e1c;
      }
    </style>
  </defs>
  <path class="cls-2" d="M35.59,130.77c-.44,5.05-.67,11.49,3.61,15.1,1.16.98,2.7,1.58,3.47,2.95.73,1.3.73,2.88.77,4.33.08,2.69.32,5.17,2.24,7.23,1.77,1.9,4.38,3.02,5.83,5.23.83,1.27.83,2.74,1.2,4.17s1.12,2.52,2.24,3.43c1.24,1,2.69,1.72,4.06,2.5,1.71.97,3.42,1.94,5.12,2.91,2.24,1.27,5.85,4.24,8.17,1.57,2.44-2.81-.29-6.63-1.62-9.25-1.43-2.8-2.76-7.54.98-9.25.88-.4.12-1.69-.76-1.3-2.19,1-3.22,3.41-3.21,5.72.01,2.85,1.61,5.36,2.87,7.81.75,1.45,1.85,3.53.76,5.08-1.29,1.84-3.75-.16-5.15-.96-3.07-1.75-6.24-3.39-9.24-5.27-1.35-.85-2.37-1.82-2.77-3.39-.38-1.46-.41-2.92-1.18-4.26-1.18-2.04-3.29-3.24-5.05-4.7-.92-.77-1.82-1.64-2.32-2.75-.58-1.29-.61-2.76-.66-4.15-.08-2.52-.18-5.19-2.25-6.95-1.11-.95-2.44-1.56-3.4-2.69s-1.56-2.52-1.92-3.95c-.75-2.97-.56-6.12-.3-9.14.08-.96-1.42-.96-1.5,0h0Z"/>
  <path class="cls-2" d="M38.06,131.78c13.55,1.27,27.31-1.59,40.78.84,3.33.6,6.62,1.54,9.71,2.94,2.91,1.31,5.64,2.95,8.43,4.49s5.46,2.89,8.41,3.79c2.59.79,5.67,1.54,7.47-1.04.96-1.37,1.68-2.93,2.54-4.36s1.78-2.86,2.8-4.2c2.08-2.73,4.59-5.07,7.74-6.51.88-.4.12-1.69-.76-1.3-5.27,2.4-8.73,7.22-11.58,12.08-.68,1.16-1.24,2.45-2.04,3.53-1.29,1.75-3.63.97-5.38.47-3.11-.89-5.99-2.4-8.81-3.96-5.57-3.09-10.97-5.96-17.29-7.21s-12.91-1.28-19.38-1.08c-7.55.23-15.11.74-22.65.03-.96-.09-.95,1.41,0,1.5h0Z"/>
  <path class="cls-1" d="M83.45,163.77c3.02,2.74,5.97,5.62,9.13,8.21,2.84,2.32,6.01,3.73,9.57,4.59,1.82.44,3.69.86,5.55,1.11s3.49-.12,5.18-.94c3.59-1.73,7.15-3.74,10.37-6.08,3.47-2.52,6.59-5.47,9.42-8.67.64-.72-.42-1.79-1.06-1.06-3.04,3.43-6.4,6.6-10.19,9.19-1.95,1.33-4,2.5-6.07,3.62s-4.33,2.67-6.83,2.52c-2.32-.14-4.77-.79-7.01-1.4s-4.24-1.39-6.11-2.63-3.56-2.87-5.25-4.4l-5.63-5.11c-.71-.65-1.78.41-1.06,1.06h0Z"/>
  <path class="cls-1" d="M75.67,162.18c-1.26.19-3.13-.1-3.08-1.74.02-.75.36-1.5.66-2.17.22-.5.52-1.2,1.1-1.36s.6.21.86.58c.39.54,1.02.59,1.55.22.49-.35.82-1.21,1.4-1.4.26-.09.29.04.4.27.14.31.24.62.44.9.24.35.64.47,1.03.27s1.04-.59,1.32-.08c.32.58.64.85,1.35.78,1.52-.13.09,2.6-.18,3.18-.14.31-.29.62-.45.93-.11.22-.24.59-.45.74-.45.31-1.43.06-1.93,0-1.48-.17-2.94-.49-4.37-.91-.93-.28-1.32,1.17-.4,1.45,1.92.57,3.97,1.01,5.98,1.07.94.03,1.69-.28,2.19-1.09s.88-1.76,1.25-2.65.72-1.78.46-2.71c-.21-.77-.87-1.44-1.68-1.52-.08,0-.63-.03-.65.04.02-.08.46.5.17-.09-.18-.37-.49-.64-.87-.8-.87-.38-1.73-.03-2.51.37l1.03.27c-.49-.69-.55-1.61-1.49-1.89s-1.79.35-2.36,1.05c-.07.08-.51.51-.51.58.47.28.61.28.44.02-.03-.09-.08-.17-.13-.25-.2-.32-.51-.55-.85-.69-.77-.31-1.66-.13-2.29.38-.76.61-1.13,1.54-1.48,2.42-.38.95-.68,1.99-.42,3.01.57,2.17,2.98,2.58,4.88,2.29.95-.14.55-1.59-.4-1.45h0Z"/>
  <path class="cls-1" d="M133.15,160.54c-.22-.57-.21-1.17.12-1.69.2-.31.85-.96,1.22-.55l.91-1.18c-.66-.39-1.24-.9-1.66-1.55-.1-.16-.18-.33-.29-.5-.03-.19-.06-.23-.08-.11-.04.07-.02.08.05.02.38-.14.8-.19,1.2-.23.71-.07,1.66.11,2.06-.64.12-.22.09-1.62.57-1.09.33.36.93.24,1.18-.15.42-.69.21-1.37.18-2.11,0-.09,0-.17,0-.26.03-.06.02-.05-.05.05.09-.03.18,0,.27,0,.37.03.71.16,1.09.13.62-.05,1.39-.7,1.3-1.4.04-.25-.17-.21-.64.13.05.15.09.29.14.44.09.29.19.58.27.88.15.51.29,1.03.39,1.55.39,1.96.13,4.01-1.44,5.39s-3.74,1.7-5.73,1.92c-.95.1-.96,1.61,0,1.5,1.98-.22,4.01-.52,5.74-1.58,1.6-.98,2.72-2.5,3.01-4.38.32-2.07-.23-4.25-.96-6.18-.28-.76-1.18-1.4-1.89-.69-.19.19-.4.6-.39.89,0,.18-.06.08.08.05-.15.02-.34-.04-.48-.07-.84-.14-1.8-.05-2.12.9-.12.36-.1.72-.06,1.09.04.31.16.73,0,1.01l1.18-.15c-.76-.83-2.12-.71-2.71.26-.15.24-.23.5-.26.77-.01.1-.06.31-.01.39-.01.12.02.1.09-.05.13-.12.12-.16-.03-.13-.19-.1-.77.04-.99.06-.36.04-.72.09-1.07.17-1.21.28-1.74,1.25-1.18,2.39s1.45,1.98,2.49,2.58c.76.44,1.46-.55.91-1.18-.87-.99-2.39-.52-3.17.33-.82.89-1.12,2.24-.68,3.38.35.89,1.8.5,1.45-.4h0Z"/>
  <path class="cls-1" d="M85.29,165.78v9.08c0,.37.35.8.76.75,3.82-.46,7.68-.56,11.52-.31.96.06.96-1.44,0-1.5-3.84-.25-7.69-.14-11.52.31l.75.75v-9.08c0-.97-1.51-.97-1.51,0h0Z"/>
  <path class="cls-1" d="M120,173.55c1.55.04,3.09.04,4.64,0,.74-.02,1.49-.05,2.23-.09.67-.04,1.5.04,1.98-.51.45-.52.38-1.4.41-2.04.04-.74.05-1.47.05-2.21-.01-1.53-.12-3.06-.31-4.58-.05-.4-.31-.75-.75-.75-.37,0-.8.35-.75.75.17,1.32.27,2.65.3,3.98.01.65.01,1.3,0,1.95,0,.34-.02.68-.04,1.02-.02.29-.09.62-.06.91-.01-.09.25-.09-.14-.06-.17.01-.34.02-.51.03-.31.02-.63.03-.94.05-.66.03-1.32.05-1.97.07-1.37.03-2.75.02-4.12-.01-.97-.02-.97,1.48,0,1.5h0Z"/>
  <path class="cls-1" d="M86.42,174.72c-.75,18.99-1.96,37.96-3.64,56.89-.03.39.37.77.75.75,2.63-.11,5.26-.22,7.88-.33l3.45-.14c.85-.04,1.92.06,2.64-.5.55-.43.71-1.04.81-1.7.19-1.21.3-2.43.45-3.65.3-2.46.6-4.93.91-7.39,1.23-10.02,2.46-20.04,3.69-30.06l-1.4.38c3.69,6.04,5.35,12.97,7.15,19.74,1.99,7.45,3.97,14.91,5.96,22.36.1.39.53.63.92.52,2.31-.62,4.62-1.23,6.94-1.85,2.15-.57,4.4-1.01,6.49-1.75,1.72-.6,1.94-1.91,1.91-3.57-.04-2.3-.11-4.6-.2-6.9-.35-9.45-1.04-18.88-2.06-28.29-.56-5.22-1.23-10.42-1.99-15.61-.14-.95-1.59-.55-1.45.4,1.27,8.64,2.26,17.32,2.96,26.02.35,4.34.63,8.69.84,13.05.1,2.14.19,4.27.26,6.41.03.99.06,1.97.09,2.96s.33,2.42.01,3.34c-.37,1.09-2.49,1.23-3.45,1.48-1.2.32-2.39.64-3.59.96-2.39.64-4.78,1.27-7.17,1.91l.92.52c-2.03-7.61-4.06-15.23-6.09-22.84-1.79-6.74-3.51-13.61-7.18-19.62-.42-.69-1.31-.32-1.4.38-1.11,9.03-2.22,18.07-3.33,27.1-.54,4.43-1.07,8.87-1.63,13.3-.14,1.13-.51,1.31-1.54,1.37-.49.03-.99.04-1.48.06l-3.45.14c-2.3.1-4.6.19-6.9.29l.75.75c1.68-18.93,2.89-37.9,3.64-56.89.04-.97-1.46-.96-1.5,0h0Z"/>
  <path class="cls-1" d="M88.27,230.03c-2.93-.73-5.94.14-8.29,1.98-1.13.88-2.07,1.97-2.88,3.15-.61.89-1.94,2.51-1.34,3.65s2.21,1.4,3.34,1.51c1.75.17,3.52.19,5.28.21,2.68.02,5.62-.03,7.99-1.44,3.04-1.82,3.33-5.22,3.22-8.43-.03-.96-1.53-.97-1.5,0,.05,1.54.11,3.15-.41,4.63-.49,1.39-1.57,2.38-2.92,2.94-2.68,1.11-5.91.86-8.74.76-.88-.03-1.76-.06-2.64-.13-.49-.04-1.73-.09-2.06-.54-.28-.37,0-.62.22-1.01.19-.34.39-.68.6-1.01.39-.6.82-1.18,1.3-1.72,2.11-2.36,5.23-3.88,8.42-3.09.94.23,1.34-1.21.4-1.45h0Z"/>
  <path class="cls-1" d="M116.08,230.72c-.2,1.39-.05,2.79.65,4.03s1.8,1.77,3.04,2.3c2.98,1.28,5.94,2.7,8.99,3.81,2.27.83,5.24,1,6.88-1.14s.53-4.89-1.16-6.53c-2.17-2.1-5.96-3.05-6.91-6.2-.28-.92-1.73-.53-1.45.4.82,2.71,3.28,4.05,5.5,5.49,1.31.85,2.63,1.86,3.12,3.42.43,1.37-.02,2.73-1.36,3.33s-2.88.27-4.23-.22c-1.69-.61-3.34-1.39-5-2.1-1.49-.64-3.01-1.23-4.48-1.92-1.69-.79-2.41-2.43-2.15-4.27.13-.94-1.31-1.35-1.45-.4h0Z"/>
  <path class="cls-1" d="M81.19,130.62c.95-2.96,3.26-5.48,6.15-6.64.38-.15.64-.5.52-.92-.1-.36-.54-.68-.92-.52-3.4,1.37-6.07,4.19-7.2,7.69-.3.92,1.15,1.32,1.45.4h0Z"/>
  <path class="cls-1" d="M98.02,112.08c-1.63-.26-3.26-.03-4.72.75-1.57.84-2.7,2.32-3.87,3.62-.66.73-1.32,1.47-1.99,2.2-.61.68-1.41,1.36-1.88,2.14-.39.65-.22,1.49.52,1.78.32.12.66.11.98.03.11-.03.84-.31.78-.37l-.12-.91c-.41.84-.83,1.67-1.24,2.51-.32.64-.69,1.4-.02,1.96,1.18.99,2.73-.52,3.48-1.35.99-1.1,1.8-2.23,3.19-2.84,1.26-.56,2.65-.92,3.55-2.05.59-.75-.46-1.82-1.06-1.06-.68.85-1.69,1.17-2.66,1.57-1.09.44-2.01,1.01-2.81,1.87-.75.81-1.39,1.8-2.31,2.43-.1.07-.22.12-.31.19-.15.13-.26-.14-.06.25s.2.01.31-.21c.07-.14.14-.28.21-.42.35-.7.69-1.39,1.04-2.09.15-.3.13-.66-.12-.91-.44-.44-1.02-.49-1.59-.28-.13.04-.57.17-.63.27-.17.03-.1.13.24.3l.17-.18c.15-.08.3-.33.41-.46,1.08-1.19,2.15-2.38,3.23-3.58.91-1.01,1.8-2.18,2.97-2.91s2.57-1.02,3.92-.8c.94.15,1.35-1.29.4-1.45h0Z"/>
  <path class="cls-1" d="M97.25,100.75c-.54,2.9-.31,5.9.78,8.64,1.02,2.57,2.69,5.21,5.44,6.11,1.41.46,2.99.66,4.47.77,1.39.1,2.81-.01,4.07-.64,2.7-1.33,3.74-4.67,4.48-7.36,1.02-3.73,1.91-7.55,1.83-11.44-.02-.96-1.52-.97-1.5,0,.07,3.71-.77,7.32-1.73,10.88-.46,1.67-.95,3.39-1.92,4.85s-2.45,2.22-4.26,2.24c-1.59.01-3.35-.22-4.87-.69-1.73-.54-2.84-1.88-3.72-3.41-1.66-2.87-2.23-6.3-1.62-9.55.18-.94-1.27-1.35-1.45-.4h0Z"/>
  <path class="cls-1" d="M97.23,100.47l1.66-2.49-1.37-.18c.23.73.59,1.33,1.13,1.87.34.34.94.27,1.18-.15l.93-1.61c.26-.45.49-1.11.89-1.43l-.53.22s.38.43.52.52c.24.15.51.23.79.21.72-.05,1.2-.68,1.43-1.31.09-.25.12-.91.33-1.08.02-.02-.14-.07.03.08.08.07.13.26.18.35.28.51.58,1.01,1.17,1.19.72.22,1.41-.19,1.86-.72.26-.31.55-1.06.99-1.12.34-.05.78.26,1.07.38,1.68.74,2.78.2,3.85-1.2h-1.3c.52,1.23.92,2.49,1.31,3.77.26.84.58,1.72,1.34,2.24,1.35.93,3.61-.05,2.92-1.87-.34-.89-1.79-.51-1.45.4l-.37.38-.42-.28c-.22-.22-.34-.54-.44-.83-.17-.48-.29-.98-.44-1.46-.33-1.05-.73-2.08-1.16-3.09-.25-.58-1-.38-1.3,0-.4.53-.78.95-1.48.79-.39-.09-.74-.34-1.11-.48-.72-.28-1.47-.34-2.13.13-.35.25-.57.62-.82.97-.15.22-.32.59-.57.49-.09-.04-.21-.37-.24-.43-.29-.52-.57-1.06-1.2-1.2s-1.27.2-1.6.77c-.18.3-.25.64-.35.97-.21.73-.18.49-.63.16-.56-.41-1.18-.24-1.6.27-.72.88-1.22,2.09-1.79,3.08l1.18-.15c-.36-.36-.59-.72-.75-1.21-.2-.63-1.01-.72-1.37-.18l-1.66,2.49c-.54.81.76,1.56,1.3.76h0Z"/>
  <path class="cls-1" d="M102.28,102.8c.97,0,.97-1.5,0-1.5s-.97,1.5,0,1.5h0Z"/>
  <path class="cls-1" d="M101.09,101.19v-.03c0,.07-.02.13-.03.2.01-.05,0-.04-.02.03-.02.06-.05.11-.1.16.08-.09-.13.08-.05.04.07-.04.14-.08.21-.11.04-.02.09-.04.13-.06.12-.06-.11.04-.02,0,.08-.03.16-.06.25-.09.33-.12.68-.2,1.03-.24l-.2.03c.24-.03.48-.05.72-.04.39,0,.77-.35.75-.75s-.33-.75-.75-.75c-.61,0-1.23.09-1.81.27-.31.1-.61.22-.89.36-.4.19-.71.53-.71,1,0,.39.34.77.75.75s.75-.33.75-.75h0Z"/>
  <path class="cls-1" d="M105.26,99.67c.15,1.74-.39,3.41-.72,5.1-.09.43-.15.87-.21,1.31s-.08.86.18,1.24c.49.73,1.8.82,2.59.83.97,0,.97-1.49,0-1.5-.38,0-.74-.04-1.1-.14-.09-.03-.19-.05-.28-.09-.07-.02-.05.03.06.14,0,0,.04-.38.04-.41.08-.7.24-1.39.4-2.08.33-1.44.67-2.91.54-4.4-.04-.4-.32-.75-.75-.75-.38,0-.79.34-.75.75h0Z"/>
  <path class="cls-1" d="M110.56,100.46c.27,0,.54-.02.81-.01.13,0,.25.01.38.02.04,0,.07,0,.11.01h-.09c.05-.02.14.01.2.02.11.02.21.05.31.08.04.01.13.07.17.06l-.09-.04s.06.03.08.04c.1.05.18.11.28.16.06.05.05.03-.04-.04.02.02.05.04.07.06.05.04.09.08.13.13.27.28.79.29,1.06,0s.29-.76,0-1.06c-.88-.92-2.18-.98-3.37-.94-.39.01-.77.34-.75.75s.33.76.75.75h0Z"/>
  <path class="cls-1" d="M112,102.01h0c-.05.03-.1.07-.15.11,0,0,0,0,.02,0l-.18.08s0,0,.01,0l-.2.03s.01,0,.02,0l-.2-.03s.01,0,.02,0l-.18-.08s.02.01.04.02l-.15-.12s.02.02.03.03l-.12-.15s.03.05.04.08l-.08-.18s.02.07.03.1l-.03-.2s0,.06,0,.1l.03-.2s-.01.05-.02.08l.08-.18s-.02.04-.03.06l.12-.15s-.03.03-.05.05l.15-.12s-.04.02-.06.03l.18-.08s-.04.01-.06.02l.2-.03s-.04,0-.06,0l.2.03s-.03,0-.05-.01l.18.08s-.02-.01-.03-.02c-.09-.05-.18-.08-.28-.09-.1-.02-.2-.02-.3.01-.1.02-.18.07-.26.13-.08.05-.15.12-.19.21l-.08.18c-.04.13-.04.27,0,.4l.08.18c.07.11.16.2.27.27,0,0,.01,0,.02.01,0,0,0,0,.01,0,.04.02.14.06.18.08.02,0,.03,0,.05.01.06.01.16.03.24.03,0,0,.02,0,.02,0,.07,0,.15-.01.22-.03.02,0,.03,0,.04-.01.06-.03.13-.05.19-.08,0,0,.02,0,.02-.01,0,0,.01,0,.02-.01.06-.04.11-.08.17-.13.01-.01.02-.02.04-.04.04-.05.09-.11.13-.17,0,0,0-.01.01-.02.02-.04.03-.08.05-.11.02-.04.04-.08.05-.12.01-.05.02-.1.02-.15,0-.05.02-.1.02-.16,0-.08-.02-.17-.03-.25,0-.02,0-.04-.01-.06-.02-.08-.06-.15-.09-.23,0-.02-.02-.04-.03-.05,0,0,0,0,0-.01-.03-.05-.08-.11-.12-.16,0,0-.01-.01-.02-.02-.04-.04-.11-.09-.16-.12,0,0,0,0-.01,0,0,0-.02,0-.02-.01-.17-.08-.15-.07-.3-.09-.13-.02-.09-.02-.22,0s-.17.02-.29.09c0,0,0,0,0,0-.03.02-.05.04-.08.06-.03.02-.06.04-.08.06-.07.07-.12.15-.16.24-.05.09-.07.19-.06.29,0,.1.02.2.06.29.03.09.08.17.16.24l.15.12c.12.07.24.1.38.1l.2-.03c.13-.04.24-.1.33-.19h0Z"/>
  <path class="cls-1" d="M101.71,101.4c-.07.12-.13.24-.18.38-.03.09-.04.21-.05.3,0,.1.01.2.03.29s.06.17.1.25c.04.06.11.15.14.19,0,.01.02.02.03.03.03.02.06.05.09.07s.06.05.09.07c0,0,.01,0,.02,0,0,0,0,0,.01,0l.18.08c.07.03.17.03.24.04.02,0,.03,0,.05,0,.1,0,.2-.02.29-.06.09-.03.17-.08.24-.16.07-.07.12-.15.16-.24.05-.09.07-.19.06-.29l-.03-.2c-.04-.13-.1-.24-.19-.33l-.15-.12c-.12-.07-.24-.1-.38-.1-.02,0-.03,0-.05,0l.2.03s-.02,0-.04,0l.18.08s-.03-.02-.05-.03l.15.12s-.03-.03-.04-.04l.12.15s-.03-.04-.04-.06l.08.18s-.02-.05-.02-.07l.03.2s0-.05,0-.07l-.03.2s.02-.08.03-.12l-.08.18c.03-.06.06-.11.09-.17.05-.09.08-.18.09-.28.02-.1.02-.2-.01-.3-.02-.1-.07-.18-.13-.26-.05-.08-.12-.15-.21-.19l-.18-.08c-.13-.04-.27-.04-.4,0l-.18.08c-.11.07-.2.16-.27.27h0Z"/>
  <path class="cls-1" d="M107.58,112.11c-.23.03.03,0,.09,0,.08,0,.16,0,.25,0,.15,0,.31.02.46.02.41,0,.83-.08,1.16-.33.59-.43,1.05-1.08,1.39-1.73.18-.35.1-.83-.27-1.03-.35-.18-.83-.1-1.03.27-.07.13-.14.26-.23.39-.04.06-.08.13-.12.19-.03.05-.08.15-.13.18.03-.02.09-.11.02-.03-.03.03-.05.07-.08.1-.05.06-.1.11-.15.17s-.1.11-.15.16c-.02.02-.05.05-.07.07-.01.01-.02.02-.04.03-.04.04-.02.02.06-.04-.02,0-.06.04-.08.05-.08.06,0,0,.05-.01-.06,0-.14.04-.2.06-.09.02.17-.01.04,0-.03,0-.06,0-.1,0-.07,0-.15,0-.22,0-.36-.02-.69-.03-1.05.02-.17.03-.36.2-.45.34-.09.16-.13.4-.08.58s.17.36.34.45c.19.1.37.11.58.08h0Z"/>
  <path class="cls-1" d="M101.93,114.4c-3.7-1.77-5.77,3.81-6.81,6.3-.2.49.3.92.72.95l2.58.2-.72-.95c-.34.93-.7,1.87-.97,2.83-.16.56-.25,1.11-.02,1.67.45,1.07,1.88,1.21,2.72,1.88,2.49,1.99,3.92,5.33,5.28,8.12.43.87,1.72.11,1.3-.76-1.27-2.59-2.56-5.3-4.52-7.47-.75-.83-1.63-1.56-2.67-2-.14-.06-.48-.11-.59-.23-.32-.35-.07-.78.06-1.18.27-.83.55-1.65.85-2.47.18-.49-.28-.91-.72-.95l-2.58-.2.72.95c.58-1.39,2.34-6.49,4.6-5.4.87.41,1.63-.88.76-1.3h0Z"/>
  <path class="cls-1" d="M112.8,115.78c1.01-.2,1.94-.07,2.87.37l-.15-1.18c-.93,1.12-1.89,2.22-2.88,3.29-.38.4-.23,1.11.33,1.25,1.67.43,2.99,1.41,4.09,2.71l-.12-.91c-1.63,2.88-4.08,5.07-6.12,7.64s-3.54,5.34-4.74,8.32h1.45c-.34-1.36-.69-2.73-1.03-4.09-.24-.94-1.68-.54-1.45.4.34,1.36.69,2.73,1.03,4.09.2.78,1.19.64,1.45,0,1.24-3.09,2.91-6,5.07-8.53,1.96-2.31,4.13-4.41,5.64-7.07.18-.31.1-.65-.12-.91-1.26-1.49-2.85-2.61-4.76-3.1l.33,1.25c.99-1.07,1.95-2.16,2.88-3.29.28-.34.32-.96-.15-1.18-1.32-.62-2.6-.8-4.03-.52-.95.18-.55,1.63.4,1.45h0Z"/>
  <path class="cls-1" d="M102.93,115.37c.26,4.37,1.02,8.75,2.61,12.84.21.55,1.05.81,1.37.18,1.98-3.87,1.84-8.44,3.43-12.45.36-.9-1.09-1.29-1.45-.4-.79,1.98-1.16,4.11-1.58,6.19s-.77,4.08-1.7,5.9l1.37.18c-1.54-3.97-2.31-8.2-2.55-12.44-.06-.96-1.56-.97-1.5,0h0Z"/>
  <path class="cls-1" d="M106.46,137.86c.97,0,.97-1.5,0-1.5s-.97,1.5,0,1.5h0Z"/>
  <path class="cls-1" d="M115.74,117.12c4.78-.02,7.45,4.68,8.91,8.59.33.9,1.79.51,1.45-.4-.91-2.42-2.02-4.83-3.84-6.72-1.7-1.77-4.04-2.98-6.53-2.98-.97,0-.97,1.5,0,1.5h0Z"/>
  <path class="cls-1" d="M124.26,127.04c-.16,1.44.66,2.69,1.45,3.82.84,1.2,1.74,2.36,2.7,3.47s1.94,2.12,3,3.1c.55.52,1.12,1.01,1.71,1.5.53.44,1.12.82,1.4,1.47.38.88,1.67.12,1.3-.76-.5-1.17-1.84-1.92-2.76-2.74-1.05-.93-2.04-1.92-2.98-2.96s-1.8-2.08-2.61-3.19-1.86-2.31-1.7-3.71c.11-.96-1.39-.95-1.5,0h0Z"/>
  <path class="cls-1" d="M134.19,139.87c.59.98,1.17,1.98,1.78,2.95.28.45.59.89.93,1.29s.72.71,1.06,1.09c.56.62.75,1.43.99,2.21.26.86.6,1.7,1.27,2.33.7.66,1.77-.4,1.06-1.06-.58-.55-.78-1.32-1-2.06-.26-.86-.56-1.67-1.15-2.36-.31-.36-.68-.67-1-1.02s-.6-.76-.86-1.18c-.61-.97-1.19-1.97-1.78-2.95-.5-.83-1.79-.07-1.3.76h0Z"/>
  <path class="cls-1" d="M136.36,140.46c2.05-1.8,4.27-3.4,6.62-4.79.83-.49.08-1.79-.76-1.3-2.46,1.45-4.78,3.14-6.93,5.02-.3.27-.27.79,0,1.06.3.3.76.27,1.06,0h0Z"/>
  <path class="cls-1" d="M136.59,141.89c.75-.07,1.34-.41,1.92-.87s1.19-1,1.78-1.5c1.21-1.03,2.42-2.06,3.63-3.08.31-.26.27-.79,0-1.06-.31-.31-.75-.26-1.06,0-1.11.94-2.22,1.88-3.33,2.82-.55.46-1.09.93-1.64,1.39-.36.31-.81.76-1.31.81-.4.04-.75.32-.75.75,0,.38.34.79.75.75h0Z"/>
  <path class="cls-1" d="M141.89,134.43c-.49.8-.33,1.77.36,2.41.78.72,1.97.68,2.92.4,2.49-.73,4.17-2.98,5.88-4.77,4.22-4.43,8.81-8.49,13.71-12.16.76-.57.02-1.87-.76-1.3-3.74,2.8-7.31,5.8-10.67,9.04-1.64,1.58-3.21,3.21-4.76,4.87-.72.77-1.46,1.56-2.35,2.16-.45.3-.93.56-1.45.71-.38.11-2.12.27-1.59-.6s-.8-1.58-1.3-.76h0Z"/>
  <path class="cls-1" d="M142.73,150.2c5.79-5.28,11.9-10.18,17.8-15.33,2.92-2.54,5.78-5.15,8.52-7.89,2.46-2.47,5.23-5.02,6.39-8.39.18-.51-.28-.89-.72-.95-.54-.07-1.08-.13-1.62-.2l.53,1.28c.35-.3.7-.6,1.04-.89.73-.63-.33-1.69-1.06-1.06-.35.3-.7.6-1.04.89-.55.47-.04,1.21.53,1.28.54.07,1.08.13,1.62.2l-.72-.95c-1.2,3.47-4.43,6.18-6.98,8.69s-5.43,5.09-8.24,7.53c-5.69,4.93-11.55,9.66-17.11,14.73-.71.65.35,1.71,1.06,1.06h0Z"/>
  <path class="cls-1" d="M174.78,117.41c.19-.66.56-1.25.67-1.93s-.04-1.43-.58-1.92c-1.22-1.11-2.76-.23-3.83.6l1.18.91c.59-.87,1.14-1.76,1.65-2.68.39-.71,1.11-1.69,1.02-2.54-.11-1.08-1.2-1.09-1.97-.69-.83.43-1.57,1.04-2.17,1.74l1.25.33c-.1-.35-.21-.7-.31-1.04-.14-.48-.67-.68-1.1-.45-1.7.9-2.8,2.58-3.4,4.38-.16.49-.26.99-.42,1.48-.17.53-.49.94-.86,1.35-.85.93-1.71,1.85-2.57,2.78-.65.71.4,1.77,1.06,1.06.81-.88,1.63-1.76,2.44-2.64s1.26-1.68,1.56-2.8c.46-1.75,1.29-3.43,2.95-4.31l-1.1-.45c.1.35.21.7.31,1.04.15.51.87.77,1.25.33s.83-.87,1.34-1.2c.12-.08.25-.15.37-.23.27-.15.4-.09.09-.35-.28-.24-.2-.2-.32.05-.08.18-.17.35-.26.53-.62,1.23-1.33,2.41-2.11,3.55-.21.31-.08.75.19.97.32.25.68.17.98-.06.35-.27,1.5-1.15,1.85-.41.28.59-.46,1.65-.62,2.21-.26.93,1.18,1.33,1.45.4h0Z"/>
  <path class="cls-1" d="M173.88,121.3l4.48,5.73,2.21,2.82c.61.78,1.3,2.2,2.48,1.95.51-.11.64-.69.45-1.1-1.73-3.79-5.36-6.21-7.3-9.86-.45-.85-1.75-.1-1.3.76,1.94,3.65,5.57,6.08,7.3,9.86l.45-1.1-.13.03h.4c-.15-.04-.31-.35-.4-.46l-.51-.65-1.01-1.29-2.02-2.58-4.04-5.16c-.25-.32-.8-.26-1.06,0-.32.31-.25.74,0,1.06h0Z"/>
  <path class="cls-1" d="M173.82,117.75c1.21.52,2.26,1.33,3.32,2.09s2.2,1.62,3.28,2.46c2.13,1.65,4.21,3.37,6.24,5.15l.73-1.25c-2.27-.61-4.1-2.1-5.74-3.73-1.88-1.86-3.64-3.84-5.45-5.76-.66-.71-1.72.36-1.06,1.06,1.9,2.03,3.75,4.13,5.75,6.06,1.75,1.69,3.72,3.18,6.1,3.82.69.19,1.31-.74.73-1.25-2.09-1.83-4.23-3.6-6.43-5.3-1.05-.81-2.12-1.61-3.19-2.4s-2.24-1.69-3.52-2.24c-.88-.38-1.64.91-.76,1.3h0Z"/>
  <path class="cls-1" d="M171.46,110.07c-.97-2.72-2.21-5.32-3.74-7.77-.32-.51-.97-.45-1.3,0-1.18,1.63-3.67,1.64-4.81-.03-.46-.67-.9-2.02-.26-2.72.61-.67,1.92-.23,2.63-.01l-.18-1.37c-.56.31-.54-.59-.21-.86.54-.45,1.26-.14,1.78.18.59.36,1.23-.24,1.1-.85-.04-.19-.27-1.16.11-1.21.69-.09.45,1.44.4,1.73-.11.65.72,1.37,1.25.73s1.14-1.26,1.87-1.66c.28-.15.58-.38.74,0,.07.17,0,.45-.02.63-.09.46-.24.92-.41,1.36-.31.82-.74,1.6-1.24,2.32-.46.65-1.13,1.62-2.01,1.66-.96.04-.97,1.54,0,1.5,1.42-.06,2.36-1.12,3.15-2.2.9-1.21,1.59-2.65,1.93-4.12.27-1.16-.03-2.9-1.56-2.92-1.33-.02-2.74,1.44-3.51,2.37l1.25.73c.24-1.41.1-3.61-1.84-3.63-1.69-.02-1.82,1.88-1.56,3.1l1.1-.85c-1.43-.89-3.74-.84-4.26,1.1-.43,1.57,1.24,2.96,2.69,2.17.58-.32.42-1.19-.18-1.37-1.31-.4-3.02-.7-4.09.4s-.82,3.11-.09,4.35c1.68,2.85,5.64,2.81,7.52.21h-1.3c1.46,2.34,2.66,4.81,3.59,7.41.32.9,1.77.51,1.45-.4h0Z"/>
  <path class="cls-1" d="M165.79,101.46c.11-.06.23-.12.35-.17l-.18.08c.29-.12.6-.2.91-.25l-.2.03c.18-.02.36-.04.53-.02l-.2-.03c.07.01.13.03.19.05l-.18-.08s.09.05.13.08l-.15-.12s.07.07.11.11l-.12-.15c.06.08.11.16.15.26l-.08-.18c.05.12.08.24.1.36l-.03-.2c.02.14.02.27,0,.41l.03-.2c-.02.14-.06.27-.11.4l.08-.18c-.05.12-.11.22-.19.33l.12-.15c-.07.09-.15.17-.24.24l.15-.12c-.1.08-.21.14-.33.19l.18-.08c-.12.05-.24.08-.37.1l.2-.03c-.14.02-.27.02-.41,0l.2.03c-.13-.02-.25-.05-.36-.1l.18.08s-.06-.03-.09-.04c-.35-.17-.83-.11-1.03.27-.18.34-.11.84.27,1.03.52.26,1.12.33,1.68.16s1.04-.54,1.3-1.05.35-1.12.18-1.68c-.09-.3-.25-.61-.48-.83-.29-.27-.67-.39-1.07-.39-.69.01-1.37.21-1.97.54-.34.19-.48.69-.27,1.03s.66.47,1.03.27h0Z"/>
  <path class="cls-1" d="M169.18,109.96c-2.31-.78-4.51-1.82-6.58-3.12-.5-.31-.99-.64-1.47-.99-.3-.21-.89-.57-.91-.99-.02-.37.42-.6.74-.57.48.05.8.48.99.88l.45-1.1c-.31.06-.06-.41.05-.48.28-.18.63,0,.85.19.34.3.57.64,1.08.66.31.01.43-.24.55.04.3.73-.12,1.67-.66,2.17-.35.33-.73.59-.99,1.02-.23.39-.36.84-.59,1.23-.16.28-.5.93-.83,1.04-.28.09-.5-.26-.63-.47-.37-.59-.54-1.28-.88-1.88-.38-.66-.88-1.04-1.59-1.3-.07-.02-.13-.04-.19-.06-.17-.1-.17.02,0,.38.07.02.53-.29.62-.33.45-.2.95-.33,1.43-.38.41-.05.75-.31.75-.75,0-.37-.35-.8-.75-.75-1.05.12-2.5.41-3.22,1.28-.33.4-.41.97-.12,1.41.31.47.8.5,1.26.73.66.34.87,1.39,1.16,2,.41.87,1.17,1.78,2.24,1.67s1.89-1.41,2.3-2.31c.11-.24.19-.51.33-.73.16-.25.4-.41.62-.6.42-.37.75-.81.97-1.32.4-.92.52-2.12-.08-2.99-.29-.42-.74-.7-1.25-.69-.12,0-.29.09-.4.07.14.02.15.11.03-.07-.14-.22-.44-.4-.67-.52-1.06-.58-2.51-.22-2.96.97-.47,1.28.66,2.46,1.95,2.23.51-.09.64-.7.45-1.1-.63-1.3-2.24-2.12-3.56-1.26-.59.39-.98,1.04-.96,1.76s.53,1.37,1.08,1.81c2.61,2.1,5.82,3.62,8.98,4.68.92.31,1.31-1.14.4-1.45h0Z"/>
  <path class="cls-1" d="M173.56,109.13l.07-3.31.04-1.77c0-.46.11-1.02-.09-1.45-.18-.4-.53-.56-.94-.65-.27-.06-.57-.15-.57-.5,0-.31.34-.51.62-.55.46-.06.88.22,1.23.48.67.51,1.29-.44,1.03-1.03s.04-1.48.65-1.76c.65-.3,1.42.03,1.77.62.2.35.68.47,1.03.27.4-.23.9.1.67.57-.26.52.06,1.1.65,1.13,1.17.05,1.73,1.35,1.24,2.32-.62,1.22-2.13,1.35-3.23.72-.3-.17-.66-.11-.91.12-.84.77-1.97.37-2.39-.6-.38-.88-1.68-.12-1.3.76.83,1.91,3.27,2.26,4.75.91l-.91.12c1.92,1.1,4.52.58,5.42-1.57.82-1.96-.53-4.19-2.68-4.28l.65,1.13c.89-1.77-.96-3.64-2.72-2.62l1.03.27c-.75-1.29-2.47-1.87-3.82-1.16s-1.8,2.45-1.19,3.81l1.03-1.03c-.91-.7-2.18-.97-3.18-.29-.93.63-1.2,1.86-.54,2.79.27.38.74.76,1.23.8.05,0,.09.01.14.02.16.04.12-.04-.12-.24,0,0-.01.52-.01.55l-.02.99-.1,4.41c-.02.97,1.48.97,1.5,0h0Z"/>
  <path class="cls-1" d="M175.51,101.42c-.17.2-.27.4-.27.67s.12.53.31.71c.3.28.69.32,1.08.3.64-.03,1.27-.1,1.85-.39.53-.26.96-.76,1.13-1.33.21-.7-.05-1.59-.8-1.82-.36-.11-.78-.04-1.14.07-.33.1-.65.24-.94.44-.32.22-.5.67-.27,1.03.21.32.68.51,1.03.27.1-.07.21-.13.32-.19.02-.01.04-.02.07-.03.07-.03.06-.03-.04.02,0-.02.17-.06.19-.07.11-.03.22-.06.34-.08.16-.03-.15,0,0,0,.03,0,.06,0,.1,0,.08,0,.06,0-.06,0-.11-.05-.13-.06-.07-.02-.09-.08-.12-.1-.08-.06.04.04.02.02-.06-.08.01.02.03.05.04.07-.05-.12-.06-.14-.04-.07,0,.03.01.05.02.08l-.02-.12s0,.06,0,.09c0,.03,0,.06,0,.08.02-.13.02-.15,0-.08-.01.04-.02.08-.03.12-.03.07-.02.05.03-.06-.01.03-.02.05-.04.08-.02.04-.05.08-.08.13-.03.05-.02.02.05-.07-.02.02-.04.04-.06.07-.04.04-.08.08-.12.12l-.03.03c-.06.05-.04.04.05-.04-.04,0-.11.07-.15.09s-.08.04-.12.06c-.07.03-.06.03.04-.02-.03.01-.06.02-.1.03-.11.04-.23.07-.34.09-.03,0-.07.01-.1.02-.07.01-.07.01,0,0,.07,0,.07,0,0,0-.03,0-.07,0-.1.01-.12.01-.24.02-.36.02-.11,0-.23,0-.34,0-.08,0-.06,0,.07,0-.08-.02-.06-.01.06.02.34.17.29.58.08.83.13-.16.22-.32.22-.53,0-.18-.08-.4-.22-.53-.27-.25-.8-.32-1.06,0h0Z"/>
  <path class="cls-1" d="M174.85,114.36c4.4.75,8.26,3.02,12.04,5.26l.18-1.37c-4.09.9-7.45-2.94-10.89-4.44-.88-.38-1.64.91-.76,1.3,3.94,1.72,7.34,5.62,12.04,4.59.65-.14.71-1.05.18-1.37-3.88-2.3-7.89-4.64-12.4-5.41-.94-.16-1.35,1.28-.4,1.45h0Z"/>
  <path class="cls-1" d="M126.36,130.17c1.86-1.01,3.87-1.68,5.96-2,.4-.06.62-.56.52-.92-.12-.43-.52-.59-.92-.52-2.21.34-4.35,1.08-6.32,2.16-.85.46-.09,1.76.76,1.3h0Z"/>
  <path class="cls-1" d="M116.04,115.67c2.89-.32,5.66.94,7.7,2.94,2.14,2.1,3.5,4.85,4.58,7.61.35.89,1.8.5,1.45-.4-1.2-3.06-2.69-6.12-5.11-8.42-2.28-2.16-5.42-3.59-8.61-3.23-.95.11-.96,1.61,0,1.5h0Z"/>
  <path class="cls-1" d="M131.56,128c.13-.02.26-.02.39-.01.03,0,.16.02.03,0-.13-.02-.02,0,0,0,.06.01.12.03.19.04s.12.04.18.06c.11.04,0,0-.04-.02.02.01.05.02.08.04.13.06.25.13.36.21.06.04.11.07.17.11.02.02.05.04.07.05.11.08-.1-.08-.03-.02.11.09.21.18.31.27.21.19.4.39.6.59.27.29.79.29,1.06,0s.29-.76,0-1.06c-.87-.91-2.01-1.94-3.37-1.77-.21.03-.38.07-.53.22-.13.13-.23.34-.22.53s.07.4.22.53c.14.13.34.24.53.22h0Z"/>
  <path class="cls-1" d="M136.6,114.83c-1.42,2.61-1.91,5.65-2.28,8.56s.2,5.47,2.53,7.45c2.12,1.8,4.69,2.92,7.45,2.02s5.03-3.08,7.09-4.99c2.46-2.28,4.58-5.15,4.52-8.64-.02-.96-1.52-.97-1.5,0,.06,3.49-2.41,6.12-4.87,8.29-2.18,1.92-5.02,4.71-8.2,4.1-1.48-.28-2.82-1.24-3.9-2.26-1.25-1.18-1.78-2.6-1.76-4.31.02-1.61.35-3.23.66-4.8s.75-3.2,1.55-4.66c.46-.85-.83-1.61-1.3-.76h0Z"/>
  <path class="cls-1" d="M142.15,120.85c-.23-.03-.5.06-.69.19-.2.14-.37.31-.47.53-.08.18-.14.36-.18.56s-.08.39-.07.59c.01.5.27.92.71,1.17.12.07.24.12.37.17.19.08.38.17.59.22.46.11.97.09,1.38-.17.16-.11.29-.26.34-.45.05-.18.03-.42-.08-.58-.21-.33-.67-.5-1.03-.27-.04.03-.09.05-.14.07l.18-.08c-.07.03-.14.04-.21.06l.2-.03c-.11.01-.21.01-.31,0l.2.03c-.17-.03-.32-.08-.48-.14l.18.08c-.19-.08-.38-.16-.55-.28l.15.12s-.07-.06-.11-.1l.12.15s-.06-.08-.08-.13l.08.18s-.02-.08-.03-.12l.03.2c-.01-.1,0-.19,0-.29l-.03.2c.03-.19.06-.38.13-.56l-.08.18c.03-.06.06-.12.1-.17l-.12.15s.07-.07.11-.11l-.15.12s.07-.04.11-.06l-.18.08s.07-.02.11-.03l-.2.03s.06,0,.09,0c.18.02.41-.1.53-.22.13-.13.23-.34.22-.53s-.07-.4-.22-.53l-.15-.12c-.12-.07-.24-.1-.38-.1h0Z"/>
  <path class="cls-1" d="M140.85,128.08c.96,1.12,2.63,1.58,4.04,1.13.37-.12.65-.53.52-.92-.12-.37-.52-.65-.92-.52-.14.04-.28.08-.42.1-.1.02.02,0,.06,0-.03,0-.07,0-.1,0-.07,0-.15,0-.22.01s-.15,0-.22,0c-.03,0-.06,0-.1,0-.02,0-.18-.02-.04,0,.12.02,0,0-.02,0-.04,0-.08-.01-.12-.02-.07-.02-.14-.03-.21-.05-.06-.02-.12-.04-.19-.06-.04-.01-.08-.03-.11-.04-.11-.04.05.02.04.02,0,0-.36-.19-.39-.2-.06-.04-.12-.08-.18-.12-.08-.05.11.09.04.03-.02-.02-.05-.04-.07-.06-.12-.1-.22-.21-.32-.33-.26-.3-.8-.28-1.06,0-.29.32-.27.74,0,1.06h0Z"/>
  <path class="cls-1" d="M140.9,117.48c.97,0,.97-1.5,0-1.5s-.97,1.5,0,1.5h0Z"/>
  <path class="cls-1" d="M148.64,122.17c.97,0,.97-1.5,0-1.5s-.97,1.5,0,1.5h0Z"/>
  <path class="cls-1" d="M138.4,114.78h0c0,.05.02.12.03.19,0-.03,0-.05,0-.08l-.03.2s.01-.05.02-.08l-.08.18s.04-.07.06-.11l-.12.15s.07-.08.11-.11l-.15.12c.09-.07.18-.11.28-.16l-.18.08c.16-.07.34-.13.49-.22.19-.12.38-.28.48-.49.09-.18.13-.38.08-.58-.02-.1-.07-.18-.13-.26-.05-.08-.12-.15-.21-.19-.17-.09-.38-.14-.58-.08-.18.06-.36.17-.45.34-.01.03-.03.06-.05.08l.12-.15s-.06.07-.1.1l.15-.12c-.1.07-.21.12-.32.17l.18-.08c-.13.05-.26.1-.38.16-.04.02-.07.04-.1.06-.08.06-.17.12-.24.19s-.13.15-.19.23c-.02.03-.04.06-.06.1-.03.07-.07.14-.09.22-.01.05-.02.1-.02.15s-.02.1-.02.15c0,.08.02.17.03.25.02.1.07.18.13.26.05.08.12.15.21.19.09.05.18.08.28.09.1.02.2.02.3-.01.18-.06.36-.17.45-.34l.08-.18c.04-.13.04-.27,0-.4h0Z"/>
  <path class="cls-1" d="M148.36,115.45c.66.06,1.35.06,2,.19s.95.5,1.34.97c.44.54.88,1.06,1.44,1.48.37.27.99.58.96,1.08-.03.4.37.75.75.75.43,0,.72-.34.75-.75.06-.9-.58-1.56-1.25-2.05-.62-.45-1.09-.97-1.58-1.56s-1.05-1.13-1.84-1.32-1.72-.2-2.56-.27c-.4-.03-.75.37-.75.75,0,.43.34.72.75.75h0Z"/>
  <path class="cls-1" d="M149,113.92c-.41-2.11-2.98-2.18-4.68-2.24-.96-.03-2.02-.16-2.96.07-.49.12-.95.38-1.4.61-.5.25-1,.5-1.5.75-.86.43-.1,1.73.76,1.3.74-.37,1.47-.81,2.24-1.11.71-.28,1.57-.15,2.32-.13.81.02,1.66,0,2.46.16.59.11,1.19.35,1.31.99.19.95,1.63.55,1.45-.4h0Z"/>
  <path class="cls-1" d="M152.75,111.23c1.38.38,2.63,1.97,3.46,3.07.98,1.29,1.55,2.77,1.19,4.39-.16.69-.37,1.4-.63,2.07-.29.76-.8,1.32-1.3,1.93-.47.57-.89,1.17-1.23,1.83-.17.33-.3.79-.65.95-.3.13-.72.05-1.04.03-.96-.09-.95,1.41,0,1.5.83.08,1.7.04,2.32-.6s.92-1.66,1.48-2.4c.61-.8,1.3-1.48,1.71-2.41.38-.87.67-1.83.86-2.76.37-1.92-.25-3.74-1.4-5.28-1.08-1.45-2.55-3.26-4.36-3.76-.93-.26-1.33,1.19-.4,1.45h0Z"/>
  <path class="cls-1" d="M153.31,109.65c-.9-1.29-2.33-1.73-3.83-1.92-1.89-.25-3.71-.32-5.52.36-1.61.61-3.16,1.53-4.55,2.54s-2.47,2.14-3.01,3.73c-.31.92,1.14,1.31,1.45.4.43-1.28,1.44-2.22,2.52-2.97,1.15-.8,2.39-1.56,3.68-2.12,1.47-.63,2.92-.7,4.5-.55,1.18.12,2.74.22,3.48,1.29.55.79,1.85.04,1.3-.76h0Z"/>
  <path class="cls-1" d="M139.87,110.98c-.54-2.64-1.17-5.27-1.88-7.87-.22-.81-1.48-.65-1.47.2.02,2.11.29,4.21.81,6.25l1.45-.4c-1.14-3.03-2.31-6.08-4.1-8.79-.32-.48-1.26-.51-1.37.18-.52,3.25-.38,6.54.45,9.73.22.84,1.43.63,1.47-.2.09-1.67-.37-3.31-1.34-4.69-.45-.65-1.67-.28-1.37.58.97,2.77,2.29,5.39,3.95,7.8.54.79,1.81.07,1.3-.76-1.45-2.31-3.16-4.43-5.1-6.33-.54-.53-1.44,0-1.25.73.6,2.38,1.45,4.68,2.52,6.88l1.18-.91c-1.59-1.54-3.19-3.06-4.94-4.43-.53-.42-1.52-.06-1.25.73.6,1.81,1.48,3.49,2.63,5.01.57.75,1.87.04,1.3-.76-1.66-2.32-3.49-4.5-5.5-6.52-.68-.69-1.72.36-1.06,1.06,2.83,2.99,5.98,5.65,9.4,7.94.8.54,1.55-.76.76-1.3-3.31-2.23-6.35-4.81-9.09-7.71l-1.06,1.06c1.92,1.93,3.68,4,5.26,6.21l1.3-.76c-1.08-1.41-1.92-2.96-2.48-4.65l-1.25.73c1.74,1.37,3.34,2.9,4.94,4.43.63.61,1.54-.16,1.18-.91-1.02-2.09-1.8-4.27-2.37-6.52l-1.25.73c1.86,1.82,3.49,3.83,4.87,6.03l1.3-.76c-1.59-2.31-2.87-4.8-3.8-7.44l-1.37.58c.83,1.18,1.21,2.49,1.13,3.93l1.47-.2c-.76-2.92-.93-5.95-.45-8.93l-1.37.18c1.73,2.61,2.85,5.52,3.95,8.43.33.89,1.69.55,1.45-.4-.49-1.92-.74-3.87-.76-5.85l-1.47.2c.71,2.6,1.34,5.22,1.88,7.87.19.94,1.64.55,1.45-.4h0Z"/>
  <path class="cls-1" d="M95.8,104.09c.47,1.32-1.4.62-1.8.01-.32-.48-.46-1.06-.62-1.6s-.84-.7-1.25-.33c.42,0,.52-.22.28-.66-.03-.24-.06-.48-.08-.72-.07-.56-.13-1.11-.2-1.67-.07-.63-1.07-1.15-1.4-.38-.52,1.22-1.03,2.44-1.55,3.65l1.37.18c-.37-2.71-.07-5.41.81-7.99l-1.37.18c.21.46.48.72.94.93.29.13.68.15.91-.12,1.01-1.15,1.93-2.37,2.76-3.66h-1.3c.2.47.65.7,1.15.63.71-.1.99-.74,1.28-1.31,1.01-1.97,1.97-3.96,2.95-5.95h-1.3c.27.42.46.83.52,1.33.06.44.44.91.95.72.87-.32,1.62-.75,2.35-1.32l-1.25-.33c.2.57.4,1.15.61,1.72.13.37.51.65.92.52,2.1-.67,4.19-1.44,6.32-1.99s4.37-.14,6.49-.01l-.65-1.13c-.35.59-.77,1-1.36,1.35-.69.41-.32,1.32.38,1.4,1.41.15,2.74.53,4.03,1.12l-.27-1.03c-.17.34-.33.68-.5,1.02-.23.47-.02.91.45,1.1,4.4,1.8,3.27,7.59,2.41,11.14l1.25-.33c-.51-.55-1.01-1.09-1.52-1.64-.66-.71-1.72.35-1.06,1.06.51.55,1.01,1.09,1.52,1.64.38.41,1.12.21,1.25-.33,1.1-4.53,1.86-10.81-3.45-12.98l.45,1.1c.17-.34.33-.68.5-1.02s.12-.85-.27-1.03c-1.54-.71-3.1-1.14-4.79-1.32l.38,1.4c.81-.48,1.41-1.08,1.9-1.89.31-.51-.1-1.1-.65-1.13-2.11-.13-4.35-.46-6.44-.04-2.28.47-4.55,1.38-6.76,2.09l.92.52c-.2-.57-.4-1.15-.61-1.72s-.8-.69-1.25-.33c-.52.41-1.07.71-1.69.94l.95.72c-.1-.78-.3-1.42-.73-2.09-.28-.44-1.03-.53-1.3,0-.56,1.13-1.12,2.27-1.69,3.4-.28.57-.56,1.13-.84,1.7-.14.28-.28.57-.42.85-.34.33-.28.55.16.68-.23-.55-1.02-.42-1.3,0-.76,1.18-1.6,2.3-2.53,3.36l.91-.12-.4-.39c-.29-.63-1.18-.38-1.37.18-.97,2.86-1.21,5.8-.81,8.79.08.61,1.13.75,1.37.18.52-1.22,1.03-2.44,1.55-3.65l-1.4-.38c.12,1,.27,6.12,2.56,4.1l-1.25-.33c.45,1.59,1.33,3.51,3.27,3.53,1.42.02,2.53-1.38,2.04-2.74-.32-.9-1.77-.51-1.45.4h0Z"/>
  <path class="cls-2" d="M33.11,151.96c3.29-.16,6.4-1.35,8.98-3.39.32-.25.26-.8,0-1.06-.31-.31-.74-.25-1.06,0-2.25,1.78-5.06,2.82-7.92,2.95-.96.05-.97,1.55,0,1.5h0Z"/>
  <path class="cls-2" d="M36.38,157.23c2.28-.14,4.49-.73,6.53-1.74.36-.18.46-.69.27-1.03-.22-.37-.66-.45-1.03-.27-1.8.89-3.77,1.41-5.78,1.53-.4.03-.75.33-.75.75,0,.39.34.78.75.75h0Z"/>
  <path class="cls-2" d="M24.99,155.61c.16-5.19-4.03-8.77-5.78-13.31l-.92.92c2.5.58,4.41,2.39,6.41,3.88,2.19,1.63,4.59,2.92,7.13,3.9.9.35,1.29-1.1.4-1.45-2.56-.99-4.95-2.35-7.12-4.02-1.98-1.52-3.92-3.19-6.42-3.77-.51-.12-1.14.36-.92.92,1.67,4.33,5.87,8,5.72,12.91-.03.97,1.47.96,1.5,0h0Z"/>
  <path class="cls-2" d="M23.16,156.3c-.42.77-.76,1.59-.96,2.44-.16.68-.37,1.55.06,2.17s1.38.85,2.09,1.01c.85.19,1.74.27,2.61.23,3.57-.17,6.65-2.06,9.4-4.2.76-.59-.31-1.65-1.06-1.06-2.12,1.65-4.47,3.14-7.15,3.62-1.35.24-2.76.2-4.07-.22-.27-.09-.51-.1-.56-.38-.05-.25.1-.64.16-.88.17-.7.43-1.35.78-1.98.47-.85-.83-1.6-1.3-.76h0Z"/>
  <path class="cls-2" d="M31.64,150.88c-.08,1.41-.07,2.83.09,4.23.12,1.07.52,2.36,1.72,2.63.39.09.81-.12.92-.52.1-.38-.13-.83-.52-.92-.05,0-.1-.02-.15-.04.07.03.06.02-.02-.02-.07-.05-.08-.05-.02-.01-.04-.03-.07-.07-.1-.1.08.09-.08-.13-.09-.16-.07-.13-.05-.09-.08-.18-.16-.47-.17-.73-.21-1.23-.1-1.23-.11-2.46-.04-3.68.02-.4-.36-.75-.75-.75-.43,0-.73.34-.75.75h0Z"/>
  <path class="cls-2" d="M48.85,162.58c-1.68.41-3.34.9-4.97,1.47-.76.27-1.5.59-2.26.84-.7.23-1.54.42-2.12-.16-.38-.38-1.13-.23-1.25.33-.42,1.99-.45,4.2.21,6.15.29.85.81,1.53,1.75,1.64s2.06-.15,3.04-.26c2.1-.25,4.3-.45,6.32-1.1,1.71-.55,3.21-1.6,3.83-3.35.33-.91-1.12-1.3-1.45-.4-.48,1.34-1.84,2.04-3.13,2.4-1.63.46-3.36.67-5.04.88-.84.1-1.67.19-2.51.28-.29.03-.67.13-.95.04-.34-.12-.41-.54-.5-.85-.45-1.64-.47-3.37-.12-5.03l-1.25.33c1.41,1.4,3.28.66,4.87.06,1.94-.73,3.93-1.34,5.95-1.83.94-.23.54-1.67-.4-1.45h0Z"/>
  <path class="cls-2" d="M38.96,171.75c-.41.6-1.7.57-2.32.66-.51.07-1.03.15-1.54.22-.34.05-1.02.26-1.32.07s-.59-.97-.76-1.26c-.21-.35-.45-1.01-.76-1.27l-.13-.21c-.19.17-.19.19,0,.07.22-.02.5-.19.69-.27.44-.18.88-.36,1.32-.55.84-.37,1.44-.82,1.17-1.83-.23-.87-.6-1.72-.96-2.54-.77-1.75-1.76-3.4-2.93-4.91-.58-.75-1.88,0-1.3.76,1.36,1.77,2.49,3.71,3.29,5.8.1.25.19.5.27.75.07.2.08.73.32.4-.12.17-.65.3-.85.38-.24.1-.49.2-.73.3-.81.32-2.03.66-1.83,1.79.1.53.48,1,.75,1.45.29.5.59.99.88,1.49.53.88,1.11,1.31,2.17,1.18,1.18-.14,2.37-.33,3.54-.5.93-.14,1.76-.41,2.32-1.22s-.75-1.55-1.3-.76h0Z"/>
  <path class="cls-2" d="M34.82,158.37c.63,2.43,2.03,4.66,3.96,6.27.31.26.76.3,1.06,0,.27-.27.31-.8,0-1.06-1.75-1.46-3-3.41-3.57-5.61-.24-.93-1.69-.54-1.45.4h0Z"/>
  <path class="cls-1" d="M23.32,70.64c-4.71-9.25-8.65-18.85-11.81-28.74l-1.21,1.58c6.33.11,10.24,6.63,15.42,9.37.9.48,1.78-.14,1.88-1.08.44-4.05,1.06-8.08,1.87-12.07.21-1.03.43-2.05.66-3.07.12-.55.25-1.1.38-1.65l.11-.47c.16-.53.17-.62.04-.28.84,1.57,1.21,3.56,1.82,5.24,2.64,7.28,5.92,14.32,9.76,21.04.8,1.4,2.96.14,2.16-1.26-2.3-4.02-4.4-8.14-6.27-12.37s-3.33-8.63-4.92-12.99c-.55-1.5-1.98-3.07-3.74-2.15-.82.43-1.04,1.28-1.25,2.11-.32,1.25-.59,2.51-.86,3.77-1,4.68-1.74,9.4-2.25,14.15l1.88-1.08c-5.74-3.04-9.59-9.58-16.68-9.71-.79-.01-1.45.81-1.21,1.58,3.22,10.09,7.26,19.9,12.06,29.34.73,1.43,2.89.17,2.16-1.26h0Z"/>
  <path class="cls-1" d="M49.06,58.39c0-5.75-.04-11.51-.15-17.26-.05-2.79-.13-5.59-.22-8.38-.08-2.49-.12-5.03-1.47-7.22-.84-1.37-3-.11-2.16,1.26,1.3,2.11,1.09,4.8,1.16,7.19.09,2.71.15,5.42.2,8.13.1,5.42.13,10.85.13,16.27,0,1.61,2.5,1.61,2.5,0h0Z"/>
  <path class="cls-1" d="M45.1,26.79c3.87,3.69,6.55,8.39,10.13,12.33,3.3,3.63,7.69,6.45,9.66,11.11.62,1.48,2.78.2,2.16-1.26-2-4.74-6.38-7.67-9.78-11.32-3.72-4-6.43-8.84-10.4-12.63-1.16-1.11-2.93.65-1.77,1.77h0Z"/>
  <path class="cls-1" d="M48.18,45.62c3.66-.85,7.27-1.88,10.83-3.11.64-.22,1.06-.86.87-1.54-.17-.62-.9-1.09-1.54-.87-3.55,1.23-7.16,2.27-10.83,3.11-1.57.36-.9,2.77.66,2.41h0Z"/>
  <path class="cls-1" d="M73.66,48.38c-.55-3.99-2.12-7.69-3.54-11.43-.71-1.87-1.38-3.76-1.84-5.71-.53-2.23-.86-4.29.79-6.12,2.46-2.71,6.89-4.93,10.63-4.29,1.65.29,3.37,1.5,3.47,3.31s-1.7,2.87-2.99,3.67c-4.42,2.74-8.9,5.38-13.34,8.06-.99.6-.66,2.46.63,2.33,9.13-.95,19.05.51,25.4,7.75,1.06,1.21,2.83-.56,1.77-1.77-6.76-7.7-17.43-9.5-27.17-8.48l.63,2.33c2.45-1.48,4.91-2.97,7.36-4.45,2.29-1.38,4.68-2.68,6.88-4.2,1.6-1.1,3.06-2.55,3.28-4.57s-.84-3.94-2.4-5.13c-3.69-2.81-9.3-1.13-12.83,1.13-1.9,1.21-3.89,2.87-4.72,5.02-.88,2.28-.13,5.05.51,7.31,1.51,5.37,4.29,10.32,5.06,15.9.22,1.59,2.63.91,2.41-.66h0Z"/>
  <path class="cls-1" d="M101.64,16.08c-.35,8.09-.08,16.18.81,24.23.17,1.58,2.68,1.6,2.5,0-.88-8.05-1.15-16.14-.81-24.23.07-1.61-2.43-1.61-2.5,0h0Z"/>
  <path class="cls-1" d="M90.11,17.21c3.98.09,7.95.17,11.93.26l5.85.13c1.57.03,3.71.53,4.97-.63,1.18-1.1-.59-2.86-1.77-1.77.12-.11-.43-.04-.6-.04-.51,0-1.01-.02-1.52-.03l-2.6-.06-5.42-.12-10.84-.24c-1.61-.04-1.61,2.46,0,2.5h0Z"/>
  <path class="cls-1" d="M118,15.06c.22,7.27,0,14.54-.64,21.78-.14,1.6,2.36,1.59,2.5,0,.65-7.24.86-14.51.64-21.78-.05-1.61-2.55-1.61-2.5,0h0Z"/>
  <path class="cls-1" d="M128.51,35.59c.22-6.76,0-13.52-.67-20.26l-2.13.88c7.02,6.94,13.74,14.18,20.16,21.68.49.57,1.64.45,1.96-.25,3.28-7.22,4.87-15.07,4.55-23-.06-1.6-2.56-1.61-2.5,0,.3,7.47-1.11,14.93-4.21,21.74l1.96-.25c-6.42-7.51-13.14-14.74-20.16-21.68-.71-.7-2.24-.24-2.13.88.66,6.73.89,13.49.67,20.26-.05,1.61,2.45,1.61,2.5,0h0Z"/>
  <path class="cls-1" d="M60.09,70.89c.3,2.03-.36,4.22.97,6,.93,1.26,2.53,1.68,3.84.72,1.55-1.13,2.17-3.46,2.91-5.13,1.07-2.4,2.15-4.8,3.22-7.19l-1.16-.32c.5,8.76.58,17.56-.43,26.28-.23,1.96-.49,3.94-1.14,5.82-.44,1.29-2.11,4.71-4.05,3.59-.95-.55-.98-2.1-.83-3.03.17-1.1.67-2.1,1.27-3.03,1.1-1.71,2.55-3.19,3.96-4.65,3.28-3.39,6.87-6.47,10.45-9.54.61-.52-.28-1.41-.88-.88-3.81,3.27-7.63,6.55-11.09,10.21-2.46,2.6-6.53,6.83-4.58,10.79.7,1.41,2.19,1.86,3.6,1.24,1.67-.74,2.6-2.33,3.22-3.96.82-2.17,1.09-4.5,1.36-6.79.3-2.61.5-5.22.62-7.84.28-6.07.13-12.14-.21-18.2-.03-.56-.89-.93-1.16-.32-1.52,3.39-2.95,6.85-4.56,10.2-.7,1.45-2.33,3.14-3.53.98-.85-1.53-.31-3.6-.56-5.28-.12-.79-1.32-.46-1.21.33h0Z"/>
  <path class="cls-1" d="M105.51,52.47c6.5-.11,13.01-.07,19.51.12,1.61.05,1.61-2.45,0-2.5-6.5-.19-13.01-.23-19.51-.12-1.61.03-1.61,2.53,0,2.5h0Z"/>
  <path class="cls-1" d="M104.27,51v12.19c-.01,2.03-.01,4.06-.01,6.09,0,1.49-.38,3.66.69,4.89s2.96.79,4.4.67c2.11-.18,4.22-.37,6.33-.55,4.07-.35,8.14-.71,12.21-1.06,1.59-.14,1.61-2.64,0-2.5-3.62.32-7.24.63-10.85.95-1.81.16-3.62.32-5.43.47-.9.08-1.81.16-2.71.24-.49.04-1.77.4-2.1.01-.29-.33-.04-2.01-.04-2.44v-2.71c0-1.81,0-3.61,0-5.42v-10.83c0-1.61-2.49-1.61-2.49,0h0Z"/>
  <path class="cls-1" d="M105.92,63.13h10.47c1.61,0,1.61-2.5,0-2.5h-10.47c-1.61,0-1.61,2.5,0,2.5h0Z"/>
  <path class="cls-1" d="M131.36,50.38l.03,9.02c0,1.44.07,2.89-.02,4.32s-.61,2.68-1,4.02c-.33,1.12-.74,2.59-.26,3.72s1.63,1.21,2.67,1.43c3.05.65,6.1,1.29,9.16,1.94,1.57.33,2.24-2.08.66-2.41-2.68-.57-5.36-1.14-8.04-1.7-.67-.14-1.34-.28-2.01-.43-.12-.02-.23-.05-.34-.08-.18-.06-.17-.03.04.11.14.53.21-.63.23-.74.21-1.21.73-2.35,1.04-3.53.62-2.36.38-4.91.37-7.32l-.03-8.34c0-1.61-2.51-1.61-2.5,0h0Z"/>
  <path class="cls-1" d="M154.58,52.84v9.23c0,2.85.21,5.77-.98,8.44-.65,1.46,1.51,2.73,2.16,1.26,1.3-2.91,1.32-5.84,1.32-8.97,0-3.32,0-6.64,0-9.96,0-1.61-2.5-1.61-2.5,0h0Z"/>
  <path class="cls-1" d="M178.62,54.92l-5.97-.08c-1.71-.02-3.47-.17-5.18.1-1.42.22-2.79.88-3.49,2.19s-.46,3.03.34,4.29c1.89,2.97,5.84,3,8.85,4.04,1.59.55,3.12,1.36,4.29,2.59.51.54.95,1.17,1.24,1.86.07.18.17.57.17.58-.13.3-.68.58-.95.74-3.52,2.04-7.65-.33-10.73-2.09-1.4-.8-2.66,1.36-1.26,2.16,3.11,1.78,6.48,3.58,10.18,3.09,1.62-.21,3.27-.85,4.44-2.04,1.33-1.37.75-3.12-.16-4.57-1.93-3.07-5.38-4.53-8.76-5.37-1.51-.38-3.34-.58-4.58-1.62-.8-.67-1.5-2.12-.49-2.92,1.25-.99,3.66-.56,5.1-.54l6.97.09c1.61.02,1.61-2.48,0-2.5h0Z"/>
  <path class="cls-1" d="M186.95,73.37c-.23-3.73-.5-7.59.54-11.23.42-1.46,1.03-2.85,1.91-4.09.43-.61.93-1.17,1.49-1.67.16-.15.41-.47.66-.48s.81.55.99.71c2.29,1.98,3.3,5.09,4.11,7.91,1.06,3.69,1.7,7.47,2.22,11.27.09.67.95,1.03,1.54.87.72-.19.96-.87.87-1.54-.47-3.47-1.05-6.93-1.95-10.32-.75-2.81-1.66-5.75-3.39-8.13-.79-1.08-1.73-2.05-2.86-2.77-1.48-.94-2.59-.48-3.83.6-2.15,1.88-3.52,4.56-4.25,7.29-1,3.78-.78,7.73-.54,11.58.1,1.6,2.6,1.61,2.5,0h0Z"/>
  <path class="cls-1" d="M184.99,66.01h12.12c1.61,0,1.61-2.5,0-2.5h-12.12c-1.61,0-1.61,2.5,0,2.5h0Z"/>
</svg>