<?xml version="1.0" encoding="UTF-8"?>
<svg id="Capa_1" xmlns="http://www.w3.org/2000/svg" viewBox="0 0 193.34 30.28">
  <defs>
    <style>
      .cls-1 {
        fill: #1d1d1b;
      }
    </style>
  </defs>
  <path class="cls-1" d="M19.72,8.87c-1.79-.42-3.75-.76-5.38.33-1.47.98-2.56,2.55-3.21,4.17-.6,1.49-.86,3.44.52,4.6.59.5,1.33.75,2.08.9.91.17,1.85.27,2.77.3,2.01.07,4.1-.48,5.27-2.23.45-.67-.63-1.3-1.08-.63-.79,1.19-2.28,1.59-3.63,1.61-.81.02-1.61-.07-2.41-.17-.59-.08-1.21-.17-1.75-.44-1.27-.64-1.13-2.07-.71-3.23.47-1.33,1.31-2.59,2.4-3.51,1.41-1.2,3.14-.88,4.81-.49.78.18,1.12-1.02.33-1.21h0Z"/>
  <path class="cls-1" d="M30.77,8.8c-2.57.09-5.15,0-7.7-.31-.44-.05-.67.44-.6.79.25,1.32.4,2.65.45,3.99s-.06,2.61.11,3.9c.07.53.16,1.1.57,1.48s1.02.43,1.57.5c1.36.17,2.73.22,4.11.17.8-.03.81-1.28,0-1.25-1.18.04-2.37.01-3.55-.11-.38-.04-1.2.03-1.36-.41-.18-.5-.16-1.12-.18-1.65-.03-1.15.02-2.3-.06-3.46s-.23-2.35-.45-3.5l-.6.79c2.56.3,5.13.4,7.7.31.8-.03.81-1.28,0-1.25h0Z"/>
  <path class="cls-1" d="M24.09,14.27h2.91c.33,0,.64-.29.62-.63s-.27-.63-.62-.62h-2.91c-.33,0-.64.29-.62.63s.27.63.62.62h0Z"/>
  <path class="cls-1" d="M33.85,18.38l.04-4.71c0-1.17-.12-2.62.64-3.61.36-.46.91-.78,1.5-.81s1.24.38.71.94c-.41.43-1.03.74-1.55,1.01-.64.33-1.31.57-2,.76-.53.15-.6.86-.15,1.14,2.59,1.62,5.32,3.38,6.64,6.26.33.73,1.41.1,1.08-.63-1.4-3.07-4.33-4.98-7.09-6.71l-.15,1.14c.91-.25,1.79-.6,2.61-1.06.67-.37,1.47-.82,1.86-1.51.44-.77.17-1.71-.54-2.21s-1.61-.48-2.37-.2c-1.72.63-2.32,2.28-2.42,3.98-.11,2.06-.05,4.15-.06,6.22,0,.8,1.24.81,1.25,0h0Z"/>
  <path class="cls-1" d="M44.16,18.05l-.55-8.91-.46.6c1.52-.34,3.07-.52,4.63-.54.8-.01.81-1.26,0-1.25-1.67.03-3.33.22-4.96.59-.25.06-.47.34-.46.6l.55,8.91c.05.8,1.3.8,1.25,0h0Z"/>
  <path class="cls-1" d="M43.69,14.37h2.05c.33,0,.64-.29.62-.62s-.27-.62-.62-.62h-2.05c-.33,0-.64.29-.62.62s.27.62.62.62h0Z"/>
  <path class="cls-1" d="M43.47,19.33h6.03c.8,0,.81-1.25,0-1.25h-6.03c-.8,0-.81,1.25,0,1.25h0Z"/>
  <path class="cls-1" d="M54.01,18.7v-4.27c0-.67,0-1.35,0-2.02v-1.07c0-.2,0-.4,0-.59s.11-.42-.07-.22l-.44.18c.06,0,.84,1.18.94,1.32.36.48.72.96,1.08,1.43.28.38.8.42,1.08,0,1.41-2.17,2.9-4.29,4.49-6.34l-.98-.13c.35.73.41,1.54.44,2.34.04.87.05,1.74.06,2.6.01,1.76-.03,3.51-.12,5.26-.04.8,1.21.8,1.25,0,.1-1.91.14-3.83.11-5.74-.02-1.7.08-3.52-.67-5.09-.16-.33-.75-.43-.98-.13-1.65,2.13-3.22,4.33-4.69,6.59h1.08c-.38-.51-.77-1.02-1.15-1.53s-.73-1.08-1.17-1.53c-.3-.31-.79-.46-1.16-.18-.41.3-.36.82-.36,1.28v7.83c0,.8,1.25.81,1.25,0h0Z"/>
  <path class="cls-1" d="M66.32,8.43c-1.06,1.83-1.31,4.11-.58,6.1.63,1.74,2.07,3.37,3.96,3.73,2.09.39,4.19-.91,5.12-2.76s.62-4.23-.94-5.69c-.89-.84-2.08-1.52-3.2-1.98s-2.37-.55-3.39.14c-.66.45-.04,1.53.63,1.08s1.52-.38,2.27-.08c.8.32,1.6.81,2.31,1.32,1.39,1,2,2.7,1.36,4.33-.57,1.44-2.12,2.66-3.72,2.46-1.44-.18-2.62-1.43-3.14-2.73-.69-1.72-.52-3.69.4-5.29.4-.7-.68-1.33-1.08-.63h0Z"/>
  <path class="cls-1" d="M79.09,16.33v-3.64c.02-1.08.17-2.28-.34-3.28l-.37.92c-.11.03-.1-.04.03.05.09.07.18.12.27.18.18.12.35.25.53.37.37.26.74.53,1.11.81.71.53,1.41,1.08,2.1,1.65,1.37,1.13,2.69,2.33,3.95,3.58.46.45,1.18-.01,1.04-.61-.68-3-1.54-5.95-2.4-8.9-.22-.77-1.43-.44-1.21.33.86,2.95,1.72,5.9,2.4,8.9l1.04-.61c-1.4-1.39-2.86-2.7-4.39-3.94-.75-.61-1.52-1.2-2.31-1.77-.39-.29-.79-.57-1.19-.84s-.8-.56-1.32-.41c-.41.11-.55.56-.37.92.21.41.18.89.18,1.34,0,.55,0,1.1,0,1.65v3.29c-.01.8,1.24.81,1.24,0h0Z"/>
  <path class="cls-1" d="M89.26,7.83v7.21c0,.8,1.25.81,1.25,0v-7.21c0-.8-1.25-.81-1.25,0h0Z"/>
  <path class="cls-1" d="M92.99,15.79c0-1.69,0-3.39,0-5.08,0-.77-.06-1.59.12-2.34.03-.11.06-.21.09-.31-.4.06-.5.16-.28.3.08.1.21.2.31.29.25.25.49.51.73.77,1.78,2.04,2.91,4.61,3.28,7.29.05.34.47.51.77.44.36-.1.48-.44.44-.77-.35-2.48-1.33-4.88-2.84-6.89-.37-.5-.77-.97-1.2-1.42-.39-.41-.9-1.05-1.51-1.07-1.42-.03-1.16,2.65-1.16,3.53-.01,1.75-.01,3.5,0,5.26,0,.8,1.25.81,1.25,0h0Z"/>
  <path class="cls-1" d="M92.58,13.3h5.06c.8,0,.81-1.25,0-1.25h-5.06c-.8,0-.81,1.25,0,1.25h0Z"/>
  <path class="cls-1" d="M108.3,7.06c1.12,1.81,2.45,3.48,3.97,4.98.23.23.65.25.88,0,.56-.6.46-1.46.64-2.21.2-.85.55-1.64,1.02-2.37l-1.08-.63c-1.47,3.17-2.73,6.44-3.75,9.78-.24.77.97,1.1,1.21.33.99-3.24,2.2-6.41,3.62-9.48.33-.72-.64-1.32-1.08-.63s-.78,1.4-1.02,2.17c-.12.39-.2.78-.26,1.18-.04.28,0,.77-.19.98h.88c-1.44-1.43-2.7-3.01-3.77-4.73-.42-.68-1.51-.06-1.08.63h0Z"/>
  <path class="cls-1" d="M130.72,16.01l-.18-8.19c0-.05-.01-.49-.01-.49l-.23.35.29-.04c.32-.04.64-.08.96-.12.67-.09,1.34-.17,2.02-.26,1.34-.17,2.69-.34,4.03-.52.34-.04.62-.26.62-.62,0-.3-.29-.67-.62-.62-1.47.19-2.94.38-4.42.57-.77.1-1.54.2-2.3.3-.54.07-1.31,0-1.53.63-.11.29-.05.63-.05.94l.03,1.18.05,2.27.1,4.64c.02.8,1.27.81,1.25,0h0Z"/>
  <path class="cls-1" d="M130.37,12.65h2.91c.33,0,.64-.29.62-.62s-.27-.62-.62-.62h-2.91c-.33,0-.64.29-.62.62s.27.62.62.62h0Z"/>
  <path class="cls-1" d="M137.83,8.69v7c0,.8,1.25.81,1.25,0v-7c0-.8-1.25-.81-1.25,0h0Z"/>
  <path class="cls-1" d="M143.3,7.48h4.95c.8,0,.81-1.25,0-1.25h-4.95c-.8,0-.81,1.25,0,1.25h0Z"/>
  <path class="cls-1" d="M142.47,7.07c-.02,1.4-.04,2.8,0,4.21.02,1.08.07,2.27.69,3.19.33.5.77.87,1.36,1.03s1.23.16,1.83.17c1.38.03,2.76-.1,4.12-.36.79-.15.46-1.35-.33-1.21-1.15.21-2.31.32-3.48.31-.53,0-1.09.01-1.62-.09-.48-.09-.77-.38-.98-.81-.41-.86-.34-1.94-.35-2.87-.01-1.19,0-2.39.02-3.58,0-.8-1.24-.81-1.25,0h0Z"/>
  <path class="cls-1" d="M143.51,11.68h3.77c.33,0,.64-.29.62-.62s-.27-.62-.62-.62h-3.77c-.33,0-.64.29-.62.62s.27.62.62.62h0Z"/>
  <path class="cls-1" d="M155.83,6.09c-1.46-.25-3.01-.22-4.19.8-.97.84-1.54,2.54-.18,3.3.65.36,1.42.57,2.12.81.76.26,1.52.51,2.26.81,1.28.53,2.49,1.26,3.36,2.36l.28-1.04c-2.23.65-4.62.3-6.58-.94-.68-.43-1.31.65-.63,1.08,2.23,1.41,5.01,1.8,7.54,1.06.49-.14.56-.68.28-1.04-1.55-1.98-4.03-2.76-6.31-3.55-.55-.19-1.23-.34-1.72-.66-.36-.24,0-.8.22-1.05.79-.92,2.13-.92,3.23-.73.79.13,1.13-1.07.33-1.21h0Z"/>
  <path class="cls-1" d="M162.38,7.07v6.03c0,.8,1.25.81,1.25,0v-6.03c0-.8-1.25-.81-1.25,0h0Z"/>
  <path class="cls-1" d="M160.09,6.73h7.86c.8,0,.81-1.25,0-1.25h-7.86c-.8,0-.81,1.25,0,1.25h0Z"/>
  <path class="cls-1" d="M169.88,13.21c-.02-1.42-.02-2.85.01-4.27,0-.35-.1-1.03.16-1.32.31-.35.89.34,1.06.54,1.57,1.76,2.66,3.92,3.23,6.2.19.78,1.4.45,1.21-.33-.54-2.16-1.52-4.18-2.88-5.94-.65-.84-1.48-1.96-2.69-1.76s-1.3,1.49-1.33,2.48c-.03,1.47-.04,2.94-.01,4.41.01.8,1.26.81,1.25,0h0Z"/>
  <path class="cls-1" d="M168.6,12.11h5.28c.8,0,.81-1.25,0-1.25h-5.28c-.8,0-.81,1.25,0,1.25h0Z"/>
</svg>