<?xml version="1.0" encoding="UTF-8"?>
<svg id="Capa_1" xmlns="http://www.w3.org/2000/svg" viewBox="0 0 306.89 87.38">
  <defs>
    <style>
      .cls-1 {
        fill: #1d1d1b;
      }
    </style>
  </defs>
  <path class="cls-1" d="M114.96,71.85c.46-7.7-.04-15.41-.87-23.07-.4-3.7-1.09-7.41-1.35-11.11-.13-1.84.83-2.57,2.3-3.41s3.07-1.74,4.75-2.26c2.63-.82,6.67-.62,7.62,2.58.87,2.93-1.6,5.78-3.86,7.25-1.31.85-2.73,1.53-4.13,2.22-1.31.65-3.18,1.31-4.1,2.53-2.08,2.77,2.61,5.03,4.44,6.1,5.86,3.43,13.88,6.51,15.22,14.07.28,1.58,2.69.91,2.41-.66-1.22-6.9-7.63-10.78-13.28-13.85-1.68-.91-3.36-1.82-4.96-2.87-.24-.15-1.85-1.08-1.83-1.3.03-.38,2.06-1.2,2.4-1.38,3.05-1.55,6.33-2.91,8.44-5.74,1.78-2.39,2.64-5.75,1.03-8.46s-4.78-3.68-7.66-3.39c-1.79.18-3.48.8-5.1,1.58-1.53.73-3.18,1.53-4.49,2.63s-1.82,2.51-1.73,4.15c.11,2.06.51,4.14.76,6.19,1.16,9.35,2.04,18.78,1.48,28.21-.1,1.61,2.4,1.6,2.5,0h0Z"/>
  <path class="cls-1" d="M159.52,35.48c-4.64.88-10.21-1.74-13.97,2.24-1.56,1.65-2.23,3.9-2.59,6.09s-.98,5.04.75,6.79,5.1,1.41,7.38,1.54c3.15.17,6.31.29,9.47.42,2.39.09,5.49.21,7.17,2.19,1.48,1.74,1.43,4.12-.83,5.06-3.03,1.26-6.65,1.7-9.89,1.88-3.47.19-6.94-.08-10.34-.79-1.57-.33-2.24,2.08-.66,2.41,6.02,1.26,12.25,1.25,18.26-.14,2.26-.52,5.09-1.09,6.36-3.27,1.06-1.81.72-4.15-.35-5.87-2.93-4.76-9.98-3.95-14.75-4.16-1.48-.07-2.95-.14-4.43-.22s-3.28.04-4.76-.38c-2.28-.64-1.02-4.95-.58-6.58.76-2.87,2.56-4.66,5.61-4.78s5.87.56,8.83,0c1.58-.3.91-2.71-.66-2.41h0Z"/>
  <path class="cls-1" d="M177.34,34.69c2.5,9.3,4.32,18.77,5.4,28.34.16,1.41,1.93,1.68,2.46.33,3.74-9.56,7.47-19.11,11.21-28.67.59-1.5-1.83-2.15-2.41-.66-3.74,9.56-7.47,19.11-11.21,28.67l2.46.33c-1.11-9.79-2.93-19.49-5.49-29.01-.42-1.55-2.83-.89-2.41.66h0Z"/>
  <path class="cls-1" d="M202.32,65.46c.97-4.47,1.94-8.95,2.91-13.42.49-2.24.97-4.48,1.46-6.71.43-1.95.96-3.6,2.7-4.76,3.26-2.18,7.77-2.99,11.51-1.73.73.25,1.72.62,2.13,1.33.55.96-.12,2.08-.84,2.72-1.51,1.37-3.75,2.14-5.59,2.97-4.55,2.06-9.26,3.76-14.06,5.14-1.54.44-.89,2.86.66,2.41,5.09-1.46,10.06-3.3,14.87-5.49,2.13-.97,4.74-1.89,6.31-3.71,1.35-1.55,1.84-3.84.59-5.6s-3.67-2.42-5.67-2.71c-2.32-.33-4.7-.1-6.94.58s-4.49,1.69-6.02,3.41c-1.6,1.8-1.95,4.17-2.45,6.45-1.34,6.15-2.67,12.31-4.01,18.46-.34,1.57,2.07,2.24,2.41.66h0Z"/>
  <path class="cls-1" d="M42.52,26.07c-5.45-.52-9.79,3.64-12.94,7.57-3.62,4.51-7.22,9.45-8.67,15.14-1.34,5.26-.71,11.13,2.88,15.38s9.06,6.01,14.04,7.73c10.72,3.69,24.39,5.92,33.36-2.91,7.62-7.5,8.32-19.42,3.38-28.54-6.22-11.49-19-16.96-31.56-17.69-1.61-.09-1.6,2.41,0,2.5,10.25.6,20.71,4.47,27.09,12.86,5.69,7.5,7.11,17.8,1.88,25.95-6.11,9.52-18.33,9.75-28.16,7.08-4.91-1.33-10.19-2.93-14.55-5.62s-6.66-6.96-6.51-12.08c.17-6,3.48-11.28,6.98-15.93,3.04-4.04,7.1-9.48,12.8-8.94,1.6.15,1.59-2.35,0-2.5h0Z"/>
  <path class="cls-1" d="M40.69,25.59c-4.62,6.07-8.2,12.94-10.46,20.24-1.14,3.67-1.75,7.47-.79,11.26s3.1,7.04,5.19,10.22c.88,1.34,3.05.09,2.16-1.26-1.94-2.95-3.96-5.97-4.89-9.42-1-3.72-.16-7.41,1.01-10.99,2.22-6.78,5.62-13.12,9.94-18.79.97-1.28-1.2-2.53-2.16-1.26h0Z"/>
  <path class="cls-1" d="M46.31,27.13c2.07.07,3.59,1.9,4.95,3.26,1.49,1.51,2.98,3.02,4.4,4.6,2.88,3.19,5.36,6.66,7.21,10.54,3.51,7.35,4.74,15.8,3.44,23.84-.25,1.57,2.16,2.25,2.41.66,1.11-6.91.58-14.02-1.64-20.67-2.33-7-6.45-12.84-11.52-18.13-2.49-2.6-5.33-6.47-9.26-6.6-1.61-.05-1.61,2.45,0,2.5h0Z"/>
  <path class="cls-1" d="M45.27,27.77c-.9,14.85-.15,31.15,10.35,42.79,1.08,1.2,2.84-.58,1.77-1.77-10.02-11.11-10.47-26.91-9.61-41.02.1-1.61-2.4-1.6-2.5,0h0Z"/>
  <path class="cls-1" d="M24.97,44.41c12.93-6.25,27.07-12.68,41.8-10.36,1.57.25,2.25-2.16.66-2.41-15.49-2.44-30.1,4.03-43.73,10.61-1.45.7-.18,2.86,1.26,2.16h0Z"/>
  <path class="cls-1" d="M24.34,61.82c8.63.63,17.26,1.26,25.9,1.89,4.23.31,8.48.74,12.72.88,3.59.11,7.39-.21,10.55-2.07s5.41-4.96,5.44-8.64c.01-1.61-2.49-1.61-2.5,0-.03,4.18-3.88,6.93-7.61,7.79-4.57,1.05-9.56.21-14.17-.13-10.11-.74-20.22-1.47-30.34-2.21-1.61-.12-1.6,2.38,0,2.5h0Z"/>
  <path class="cls-1" d="M20.16,54.51c9.38.71,19.12,1.39,28.17-1.74,4.02-1.39,7.65-3.49,10.81-6.33s5.76-5.9,9.52-7.7c1.45-.69.18-2.85-1.26-2.16-3.58,1.71-6.3,4.61-9.15,7.28-3.1,2.89-6.57,5.11-10.59,6.5-8.85,3.06-18.34,2.34-27.5,1.65-1.6-.12-1.6,2.38,0,2.5h0Z"/>
  <path class="cls-1" d="M43.82,21.86c.14-4.53-.54-9.08-2.02-13.37-.52-1.51-2.94-.86-2.41.66,1.41,4.1,2.07,8.37,1.93,12.7-.05,1.61,2.45,1.61,2.5,0h0Z"/>
  <path class="cls-1" d="M67.75,25.8c1.08-2.58,2.4-5.24,3.8-7.74.32-.57.16-1.39-.45-1.71s-1.37-.16-1.71.45c-1.51,2.7-2.85,5.49-4.05,8.34-.25.6.27,1.4.87,1.54.73.17,1.26-.23,1.54-.87h0Z"/>
  <path class="cls-1" d="M73.05,27.52c.96-.26,1.9-.7,2.71-1.29.15-.08.26-.19.35-.32.11-.12.19-.26.22-.43.08-.3.05-.7-.13-.96s-.43-.5-.75-.57-.7-.07-.96.13c-.46.34-.97.62-1.5.85l.3-.13c-.3.12-.6.23-.91.31s-.59.3-.75.57-.22.66-.13.96.29.59.57.75.63.22.96.13h0Z"/>
  <path class="cls-1" d="M77.09,32.38c1.89-.46,3.77-.97,5.63-1.52.63-.19,1.08-.89.87-1.54s-.87-1.07-1.54-.87c-1.86.55-3.74,1.06-5.63,1.52-.64.15-1.08.91-.87,1.54.21.66.86,1.04,1.54.87h0Z"/>
  <path class="cls-1" d="M18.83,68.27h-4.84c-.65,0-1.28.57-1.25,1.25s.55,1.25,1.25,1.25h4.84c.65,0,1.28-.57,1.25-1.25s-.55-1.25-1.25-1.25h0Z"/>
  <path class="cls-1" d="M20.67,72.59c-.02.15-.04.3-.06.45l.04-.33c-.13.99-.34,1.97-.62,2.93-.18.63.22,1.39.87,1.54s1.34-.2,1.54-.87c.36-1.22.58-2.46.72-3.71.03-.3-.16-.68-.37-.88-.22-.22-.57-.38-.88-.37s-.66.12-.88.37l-.2.25c-.11.19-.17.41-.17.63h0Z"/>
  <path class="cls-1" d="M27.42,74.69v3.87c0,.65.57,1.28,1.25,1.25s1.25-.55,1.25-1.25v-3.87c0-.65-.57-1.28-1.25-1.25s-1.25.55-1.25,1.25h0Z"/>
  <path class="cls-1" d="M252.82,31.23c-3.25-3.99-6.82-7.69-10.7-11.07l-1.22,2.09c4.82,1.66,9.49,3.68,14.01,6.02,1.02.53,2.03-.34,1.84-1.41-.92-5.18-1.48-10.42-1.7-15.68l-2.13.88c3.79,2.99,6.73,6.9,8.42,11.43.26.69,1.12,1.25,1.84.75,4.03-2.84,8.43-5,13.15-6.42l-1.41-1.84c-2.17,3.67-4.49,7.23-6.96,10.7-.29.4-.21,1.2.2,1.51,4.09,3.23,7.8,6.88,11.11,10.9l1.22-2.09c-5.59-.81-11.05-2.38-16.19-4.73-.65-.3-1.3-.15-1.71.45-3.31,4.82-6.62,9.63-9.93,14.45l2.28.3c-1.92-4.81-2.3-10.01-1.01-15.04.4-1.56-2.01-2.22-2.41-.66-1.39,5.42-1.07,11.16,1.01,16.36.4,1.01,1.64,1.23,2.28.3,3.31-4.82,6.62-9.63,9.93-14.45l-1.71.45c5.34,2.45,10.96,4.15,16.78,4.99,1.25.18,2.05-1.08,1.22-2.09-3.31-4.02-7.03-7.67-11.11-10.9l.2,1.51c2.47-3.47,4.79-7.04,6.96-10.7.55-.92-.36-2.15-1.41-1.84-4.92,1.47-9.56,3.71-13.75,6.67l1.84.75c-1.84-4.93-4.92-9.27-9.06-12.54-.78-.61-2.18-.3-2.13.88.23,5.48.83,10.94,1.78,16.34l1.84-1.41c-4.71-2.45-9.59-4.54-14.61-6.28-1.16-.4-2.15,1.28-1.22,2.09,3.88,3.38,7.45,7.08,10.7,11.07,1.02,1.25,2.78-.53,1.77-1.77h0Z"/>
  <path class="cls-1" d="M270.45,64.54c.14,4.75.98,9.43,2.55,13.91.32.91,1.8,1.35,2.28.3,2.16-4.69,3.28-9.72,3.25-14.88l-1.25,1.25c5.33.49,10.69.59,16.03.29.92-.05,1.59-1.03,1.08-1.88-1.76-2.92-5-3.67-8.09-4.4-.39-.09-.97-.12-1.31-.33-.49-.31-.49.17-.38-.63.14-.95.36-1.9.54-2.85.36-1.9.71-3.8,1.07-5.7.22-1.18-1.15-2.14-2.09-1.22-1.27,1.26-2.54,2.51-3.82,3.77-.69.68-1.39,1.37-2.08,2.05-.25.25-.52.62-.81.62-.31,0-.88-.43-1.18-.57-3.2-1.52-6.31-3.24-9.32-5.12-1.24-.77-2.45.94-1.51,1.96,2.21,2.41,4.32,4.91,6.3,7.51l.75-1.84c-3.2,1.05-6.31,2.36-9.29,3.93-.77.41-.86,1.78,0,2.16l7.3,3.22c1.46.64,2.73-1.51,1.26-2.16-2.43-1.07-4.87-2.15-7.3-3.22v2.16c2.8-1.47,5.69-2.7,8.7-3.68.68-.22,1.27-1.16.75-1.84-2.11-2.77-4.34-5.45-6.69-8.02l-1.51,1.96c1.87,1.17,3.78,2.28,5.73,3.31,1.73.92,3.54,1.97,5.39,2.63s3.06-1.11,4.26-2.29c1.62-1.6,3.24-3.19,4.86-4.79l-2.09-1.22c-.39,2.06-.77,4.12-1.16,6.18-.21,1.11-.45,2.21-.62,3.33-.11.71-.08,1.34.45,1.89,1.14,1.18,3.62,1.28,5.13,1.67,1.79.46,3.62,1.13,4.62,2.79l1.08-1.88c-5.35.3-10.7.2-16.03-.29-.67-.06-1.25.62-1.25,1.25.02,4.71-.94,9.34-2.91,13.62l2.28.3c-1.49-4.28-2.32-8.72-2.46-13.25-.05-1.61-2.55-1.61-2.5,0h0Z"/>
</svg>