<?xml version="1.0" encoding="UTF-8"?>
<svg id="Capa_1" xmlns="http://www.w3.org/2000/svg" viewBox="0 0 68.66 85.65">
  <defs>
    <style>
      .cls-1 {
        fill: #1d1d1b;
      }
    </style>
  </defs>
  <path class="cls-1" d="M11.68,36.76c-.03,10.37-.09,20.74-.08,31.11,0,1.64.42,2.86,2.25,2.95,2.34.12,4.83-.37,7.16-.58,5.16-.47,10.32-.98,15.48-1.52,5.81-.61,11.62-1.28,17.42-1.98.33-.04.64-.25.62-.62-.38-10.11-.76-20.22-1.13-30.32-.05-1.29.43-3.99-1.19-4.55-.92-.32-2.14-.13-3.09-.14-1.33-.02-2.65-.02-3.98-.03-5.05-.01-10.11.06-15.16.23-5.8.19-11.59.49-17.38.9-.45.03-.66.37-.6.79.12.86.23,1.72.35,2.58.11.79,1.31.46,1.21-.33-.12-.86-.23-1.72-.35-2.58l-.6.79c9.42-.67,18.87-1.05,28.31-1.12,2.4-.02,4.81-.02,7.21,0,.95,0,2.73-.29,3.56.18.54.31.38.92.4,1.55l.07,1.97c.18,4.68.35,9.37.53,14.05.2,5.34.4,10.68.6,16.02l.62-.62c-9.56,1.16-19.13,2.2-28.72,3.12-2.38.23-4.75.44-7.13.65-1.15.1-2.29.23-3.44.3-.39.02-.89.1-1.26-.07-.69-.33-.52-1.19-.52-1.85l.04-14.57.04-16.29c0-.8-1.25-.81-1.25,0h0Z"/>
  <path class="cls-1" d="M30.51,33.35c-.09,11.03-.18,22.07-.27,33.1,0,.8,1.24.81,1.25,0,.09-11.03.18-22.07.27-33.1,0-.8-1.24-.81-1.25,0h0Z"/>
  <path class="cls-1" d="M33.07,32.67c.41,12.63.25,25.27-.49,37.88-.05.8,1.2.8,1.25,0,.74-12.61.91-25.25.49-37.88-.03-.8-1.28-.81-1.25,0h0Z"/>
  <path class="cls-1" d="M11.94,49.33c6.82,0,13.65,0,20.47,0,.8,0,.81-1.25,0-1.25-6.82,0-13.65,0-20.47,0-.8,0-.81,1.25,0,1.25h0Z"/>
  <path class="cls-1" d="M12.96,53.39c5.01.18,10.02.1,15.02-.23.8-.05.8-1.3,0-1.25-5,.33-10.01.41-15.02.23-.8-.03-.8,1.22,0,1.25h0Z"/>
  <path class="cls-1" d="M34.8,48.31c5.46,0,10.92,0,16.38,0,.8,0,.81-1.25,0-1.25-5.46,0-10.92,0-16.38,0-.8,0-.81,1.25,0,1.25h0Z"/>
  <path class="cls-1" d="M34.8,51.38h19.11c.8,0,.81-1.25,0-1.25h-19.11c-.8,0-.81,1.25,0,1.25h0Z"/>
  <path class="cls-1" d="M30.68,30.92c-3.59-1.3-6.83-3.4-9.5-6.13-1.29-1.32-2.43-2.76-3.4-4.33-.47-.75-.89-1.52-1.27-2.32-.18-.38-.45-.82-.55-1.23-.27-1.12.61-1.34,1.48-1.39,9.09-.51,14.02,8.84,16.51,16.13.2.59,1.01.6,1.21,0,1.33-3.97,3.03-7.81,5.11-11.44,1.82-3.18,3.86-6.5,6.78-8.8,1.4-1.1,3.09-1.96,4.88-2.13.9-.08,2.08,0,2.6.85.68,1.14-.39,2.45-1.14,3.28-2.79,3.1-5.82,6.03-8.84,8.91-3.43,3.28-6.95,6.45-10.56,9.51-.61.52.27,1.4.88.88,3.85-3.27,7.6-6.65,11.24-10.16,1.79-1.73,3.55-3.48,5.29-5.26,1.47-1.51,3.47-3.1,4.31-5.09.65-1.54.16-3.2-1.43-3.87s-3.48-.28-5,.33c-3.67,1.46-6.24,4.78-8.31,7.99-2.95,4.56-5.28,9.5-7.01,14.65h1.21c-2.39-6.99-6.26-14.62-14.02-16.64-2.06-.54-7.79-1.17-6.38,2.57,1.2,3.2,3.29,6.15,5.68,8.56,2.8,2.82,6.19,4.96,9.92,6.32.76.27,1.08-.93.33-1.21h0Z"/>
  <path class="cls-1" d="M33.22,31.6c-6.88-1.29-10.54-7.87-12.36-14.04l-1.04.61c4.08,4.27,8.27,8.43,12.56,12.48.58.55,1.47-.33.88-.88-4.29-4.06-8.48-8.22-12.56-12.48-.43-.45-1.22.01-1.04.61,1.93,6.57,5.92,13.54,13.23,14.91.79.15,1.12-1.06.33-1.21h0Z"/>
  <path class="cls-1" d="M36,29.61c0-1.74,1.04-3.14,2.05-4.47s2.12-2.78,3.23-4.12c2.13-2.58,4.47-4.99,7.26-6.86l-.86-.86c-4.94,7.59-10.44,14.8-16.47,21.55-.53.6.35,1.49.88.88,6.1-6.83,11.68-14.12,16.67-21.8.33-.51-.34-1.2-.86-.86-3.09,2.07-5.65,4.76-7.98,7.63-1.12,1.39-2.22,2.8-3.28,4.23s-1.9,2.89-1.9,4.67c0,.8,1.25.81,1.25,0h0Z"/>
</svg>