<?xml version="1.0" encoding="UTF-8"?>
<svg id="Capa_1" xmlns="http://www.w3.org/2000/svg" viewBox="0 0 113.5 82.83">
  <defs>
    <style>
      .cls-1 {
        fill: #1d1d1b;
      }
    </style>
  </defs>
  <path class="cls-1" d="M45.04,7.32c.15-1.39-.3-2.77-1.16-3.86-.2-.26-.67-.23-.88,0-.25.27-.22.61,0,.88-.08-.1.06.08.07.1.04.06.08.12.12.19.08.13.15.26.22.39.03.07.06.13.1.2-.04-.1.01.03.02.06.05.14.1.28.14.43s.07.29.1.44c0,.06.02.11.03.17-.02-.15,0,.09,0,.11.02.3.02.6-.01.9-.04.33.31.64.62.62.37-.02.59-.28.62-.62h0Z"/>
  <path class="cls-1" d="M53.18,4.16c1.09-1.76,2.85-3.04,4.85-3.56.78-.2.45-1.41-.33-1.21-2.32.59-4.34,2.1-5.6,4.13-.42.69.66,1.31,1.08.63h0Z"/>
  <path class="cls-1" d="M58.59,6.24h3.42c.33,0,.64-.29.62-.62s-.27-.62-.62-.62h-3.42c-.33,0-.64.29-.62.62s.27.62.62.62h0Z"/>
  <path class="cls-1" d="M22.79,22.58c.98,2.91,2.12,5.77,3.45,8.54,1.02,2.13,2.23,4.29,4.14,5.74,4.27,3.24,10,1.24,14.04-1.37s8-6.61,9.99-11.14c.82-1.86.77-4.01-1.35-4.89-2.61-1.09-5.73-.89-8.49-.89-3.57,0-7.14-.14-10.7-.43-1.78-.14-3.56-.33-5.33-.54-.64-.08-5.66-.36-5.63-1.26l-.46.6c10.32-2.85,21.6-.9,30.38,5.22.66.46,1.29-.62.63-1.08-9.04-6.3-20.72-8.28-31.34-5.35-.27.08-.45.33-.46.6-.07,2.13,3.4,2.05,4.78,2.24,2.71.37,5.43.67,8.16.87s5.67.34,8.51.36,5.56-.18,8.26.44c1.62.37,2.7,1.09,2.16,2.91-.35,1.18-1.08,2.27-1.74,3.29-1.37,2.09-3.03,3.98-4.91,5.63-3.46,3.03-8.82,6.39-13.62,4.88-2.76-.87-4.36-3.34-5.6-5.79-1.45-2.88-2.64-5.88-3.66-8.93-.25-.76-1.46-.43-1.21.33h0Z"/>
  <path class="cls-1" d="M31.67,37.38l-2.65,13.66-1.32,6.83c-.37,1.89-.6,3.98-2.1,5.35-.6.54.29,1.43.88.88,1.32-1.2,1.81-2.86,2.16-4.56.49-2.39.93-4.8,1.4-7.2l2.84-14.64c.15-.79-1.05-1.12-1.21-.33h0Z"/>
  <path class="cls-1" d="M33.54,38.55c-1.98,8.96-3.68,17.98-5.08,27.05-.12.79,1.08,1.13,1.21.33,1.41-9.07,3.11-18.09,5.08-27.05.17-.78-1.03-1.12-1.21-.33h0Z"/>
  <path class="cls-1" d="M32.37,61.71c1.6-.68,1.96,2.11,1.84,3.03-.2,1.47-.94,2.86-1.87,4-1.48,1.81-3.67,3.21-6.06,3.23-2.58.02-4.54-1.76-5.93-3.77-1.74-2.51-2.91-5.42-3.76-8.34l-.6.79c3.79.18,7.53.78,11.19,1.79.78.21,1.11-.99.33-1.21-3.76-1.04-7.62-1.65-11.52-1.84-.4-.02-.71.42-.6.79.85,2.92,2.02,5.84,3.72,8.38,1.33,2,3.16,3.94,5.6,4.47,4.8,1.05,9.82-3.14,10.69-7.76.25-1.33.14-2.79-.73-3.88-.75-.94-1.81-1.26-2.92-.78-.74.32-.1,1.39.63,1.08h0Z"/>
  <path class="cls-1" d="M24.97,25.88c2.47.13,4.89.61,7.21,1.47s4.23,2.17,6.4,3.2c3.63,1.72,7.63,1.55,10.67-1.27.59-.55-.29-1.43-.88-.88-1.52,1.41-3.53,2.2-5.62,2.08s-4.11-1.26-5.96-2.3c-3.69-2.06-7.58-3.33-11.82-3.54-.8-.04-.8,1.21,0,1.25h0Z"/>
  <path class="cls-1" d="M52.13,21.41c1.31,3.27,4.25,5.56,6.86,7.78s5.6,4.43,9.03,5.29c2.94.74,6.3.55,8.91-1.09,2.84-1.78,3.98-4.93,4.51-8.09.68-4.11,1.08-8.29,1.6-12.43.15-1.16.19-2.5-1.33-2.56-.74-.03-1.49.35-2.16.62-.9.36-1.79.75-2.68,1.14-3.86,1.74-7.6,3.76-11.66,5.02-2.07.64-4.2,1.1-6.37,1.18-1.05.04-2.45.13-3.46-.21-.6-.2-.71-.3-.28-.84.32-.4.9-.73,1.33-1.02,6.36-4.28,14.75-3.41,21.62-6.53.73-.33.1-1.41-.63-1.08-5.93,2.69-12.7,2.43-18.68,4.96-1.37.58-6.24,2.71-5.23,4.87.53,1.13,2.72,1.03,3.75,1.08,1.88.09,3.77-.12,5.61-.51,3.74-.79,7.24-2.38,10.68-4.01,1.89-.89,3.77-1.81,5.69-2.61.43-.18,2.3-1.22,2.67-.55.13.23-.12,1.01-.15,1.27-.08.66-.17,1.32-.25,1.97-.49,3.9-.7,7.99-1.68,11.81-.9,3.49-3.18,6.01-6.81,6.61-4.03.66-7.83-1.13-10.98-3.47-1.64-1.21-3.16-2.58-4.67-3.94-1.61-1.45-3.22-2.98-4.04-5.03-.3-.74-1.51-.42-1.21.33h0Z"/>
  <path class="cls-1" d="M54.62,23.01l7.25-.04c2.34-.01,4.72-.17,7.06-.01,2.46.17,3.29,2.07,4.74,3.72,1.09,1.23,2.53,2.09,4.21,1.74.79-.17.45-1.37-.33-1.21-2.25.48-3.5-2.25-4.71-3.63s-2.56-1.83-4.29-1.89c-4.63-.15-9.29.04-13.92.06-.8,0-.81,1.25,0,1.25h0Z"/>
  <path class="cls-1" d="M71.6,34.16c-.42,2.34.2,4.51,1.11,6.67,1.1,2.61,2.31,5.17,3.47,7.75,2.31,5.14,4.62,10.29,6.93,15.43.33.73,1.41.1,1.08-.63-2.11-4.7-4.22-9.39-6.33-14.09-1.04-2.31-2.08-4.62-3.11-6.93-1.11-2.46-2.43-5.09-1.94-7.86.14-.79-1.06-1.12-1.21-.33h0Z"/>
  <path class="cls-1" d="M75.7,33.4c-1.05,4.42.76,8.66,2.77,12.52,2.35,4.49,4.79,8.94,7.18,13.41.38.71,1.46.08,1.08-.63-2.18-4.07-4.36-8.14-6.54-12.21s-4.37-8.22-3.28-12.76c.19-.78-1.02-1.12-1.21-.33h0Z"/>
  <path class="cls-1" d="M84.93,56.43c3.51-.16,8.16.35,9.52,4.21.59,1.7.35,3.69-1.24,4.75-1.67,1.12-4.13,1.38-6.07,1.69-2.26.36-4.55.53-6.84.52-2.04-.01-4.38.02-6.35-.59-.68-.21-1.74-.62-1.93-1.41-.27-1.12,1.62-2.11,2.35-2.64,1.84-1.34,3.76-2.57,5.73-3.7.7-.4.07-1.48-.63-1.08-2.04,1.17-4.01,2.44-5.91,3.83-1.2.88-3.04,1.94-2.79,3.68.2,1.39,1.64,2.16,2.85,2.53,1.96.59,4.22.6,6.25.63,2.26.04,4.52-.11,6.76-.43,2.08-.29,4.32-.62,6.26-1.46,3.1-1.33,3.82-4.75,2.35-7.62-1.9-3.72-6.57-4.33-10.31-4.16-.8.04-.81,1.29,0,1.25h0Z"/>
</svg>