<?xml version="1.0" encoding="UTF-8"?>
<svg id="Capa_1" xmlns="http://www.w3.org/2000/svg" viewBox="0 0 252.45 67.58">
  <defs>
    <style>
      .cls-1 {
        fill: #1d1d1b;
      }
    </style>
  </defs>
  <path class="cls-1" d="M1.21,2.5c10.3,0,20.61,0,30.91,0,1.61,0,1.61-2.5,0-2.5C21.82,0,11.51,0,1.21,0-.4,0-.4,2.5,1.21,2.5h0Z"/>
  <path class="cls-1" d="M17.63,23.26c.5-7.23-.59-14.52-3.21-21.27-.57-1.48-2.99-.84-2.41.66,2.55,6.58,3.61,13.58,3.12,20.61-.11,1.61,2.39,1.6,2.5,0h0Z"/>
  <path class="cls-1" d="M53.33,20.04c-3.93-.14-7.84-.56-11.7-1.31-1.91-.37-3.82-.79-5.69-1.33-.52-.15-.64-.17-.84-.66-.16-.41-.27-.88-.39-1.3-.31-1.01-.61-2.02-.92-3.03-.57-1.87-1.13-3.75-1.7-5.62-.09-.29-.17-.58-.26-.86-.03-.53-.16-.57-.41-.12.23-.23.91-.33,1.2-.42.93-.32,1.88-.61,2.83-.88,3.71-1.04,7.5-1.64,11.34-1.84,1.6-.08,1.61-2.58,0-2.5-3.56.19-7.11.69-10.57,1.55-1.71.43-3.4.93-5.06,1.53-1.43.52-2.26,1.3-1.86,2.91.91,3.71,2.22,7.37,3.34,11.02.48,1.58,1.27,2.25,2.86,2.68,1.81.5,3.64.91,5.48,1.27,4.08.79,8.22,1.25,12.37,1.4,1.61.06,1.61-2.44,0-2.5h0Z"/>
  <path class="cls-1" d="M33.42,10.74c3.14.2,6.29.24,9.44.12.67-.03,1.25-.56,1.25-1.25,0-.66-.57-1.28-1.25-1.25-3.15.13-6.3.09-9.44-.12-.67-.04-1.25.61-1.25,1.25,0,.71.57,1.21,1.25,1.25h0Z"/>
  <path class="cls-1" d="M38.93,40.49h13.36c1.61,0,1.61-2.5,0-2.5h-13.36c-1.61,0-1.61,2.5,0,2.5h0Z"/>
  <path class="cls-1" d="M36.76,39.11c-1.56,3.49-1.37,7.52-1.45,11.26-.08,4.38-.02,8.76.2,13.13.08,1.62.26,3.28,2.05,3.83,1.66.5,3.8.14,5.49.03,4.12-.29,8.19-.98,12.18-2.06,1.55-.42.89-2.83-.66-2.41-3.39.91-6.84,1.56-10.34,1.87-1.64.15-3.3.23-4.95.24-1.05,0-1.19-.2-1.26-1.25-.05-.91-.09-1.82-.12-2.72-.13-3.55-.16-7.1-.1-10.66.06-3.21-.24-6.99,1.11-10,.65-1.46-1.5-2.73-2.16-1.26h0Z"/>
  <path class="cls-1" d="M36.31,53.59h8.91c.68,0,1.25-.57,1.25-1.25s-.57-1.25-1.25-1.25h-8.91c-.68,0-1.25.57-1.25,1.25s.57,1.25,1.25,1.25h0Z"/>
  <path class="cls-1" d="M69.77,42.5c-1.54-.99-3.24-1.75-5.03-2.17-1.59-.37-3.67-.85-4.92.51s-1.96,3.5-2.4,5.24c-.42,1.65-.61,3.49.32,5.01,1.77,2.9,5.78,3.09,8.78,3.52,2.39.34,9,1.41,7.48,5.2-.7,1.76-2.67,2.76-4.46,2.94-2.26.23-4.39-.7-6.18-2-1.3-.95-2.55,1.22-1.26,2.16,2.91,2.11,6.7,3.11,10.13,1.71,2.94-1.2,5.62-4.59,4.02-7.84s-5.59-4.07-8.71-4.53c-2.69-.4-8.4-.38-7.94-4.36.12-1.04.47-2.11.86-3.08.36-.89.81-2.35,1.88-2.37,2.12-.03,4.45,1.09,6.18,2.21,1.36.88,2.61-1.29,1.26-2.16h0Z"/>
  <path class="cls-1" d="M82.4,62.68c-.98-4.55-1.97-9.1-2.95-13.65-.46-2.11-.92-4.22-1.37-6.34-.22-1.02-.62-2.19.11-3.1.54-.67,1.58-1.13,2.34-1.47,1.47-.65,4.36-1.74,5.87-.82,1.44.87,1.6,3.21,1.47,4.69-.34,3.83-3.48,6.85-7.28,7.18-1.59.14-1.61,2.64,0,2.5,3.62-.31,7.02-2.32,8.66-5.63,1.49-2.99,1.81-7.39-.57-10.04-2.6-2.91-7.93-1.03-10.74.64-1.57.93-2.7,2.29-2.69,4.19.02,2.12.8,4.36,1.24,6.42,1.16,5.36,2.32,10.73,3.48,16.09.34,1.57,2.75.91,2.41-.66h0Z"/>
  <path class="cls-1" d="M97.85,62.79l-.77-9.94c-.25-3.26-.81-6.65-.69-9.92.24-6.72,9.7-5.38,14.07-5.6,1.6-.08,1.61-2.58,0-2.5-5.5.28-13.8-.88-16.17,5.77-.55,1.54-.4,3.19-.28,4.79.15,1.91.29,3.81.44,5.72l.9,11.68c.12,1.59,2.62,1.61,2.5,0h0Z"/>
  <path class="cls-1" d="M97.62,52.54h7.34c.65,0,1.28-.57,1.25-1.25s-.55-1.25-1.25-1.25h-7.34c-.65,0-1.28.57-1.25,1.25s.55,1.25,1.25,1.25h0Z"/>
  <path class="cls-1" d="M98.67,65.9h10.74c1.61,0,1.61-2.5,0-2.5h-10.74c-1.61,0-1.61,2.5,0,2.5h0Z"/>
  <path class="cls-1" d="M129.14,64.26c-1.34-5.01-2.53-10.05-3.55-15.13-.51-2.54-.98-5.09-1.41-7.64-.11-.64-.21-1.28-.31-1.92-.09-.56-.06-1.41-.3-1.92.1-.44-.05-.6-.44-.48.21-.04.43-.07.65-.08.4-.04.8-.05,1.2-.05,3.73-.02,7.86,1.62,8.02,5.91.09,2.42-1.05,4.64-2.36,6.6-1.38,2.08-3,3.99-4.71,5.8-.61.65-.4,1.88.55,2.09,4.9,1.06,9.5,3.2,13.41,6.36,1.24,1,3.02-.76,1.77-1.77-4.25-3.43-9.17-5.85-14.51-7l.55,2.09c2.98-3.14,6.29-6.89,7.43-11.16,1-3.74-.12-7.71-3.51-9.78-1.49-.91-3.2-1.35-4.91-1.54-1.44-.16-3.87-.42-5.07.56-.68.56-.71,1.36-.61,2.17.16,1.28.39,2.56.6,3.84.39,2.4.82,4.79,1.28,7.17,1.08,5.56,2.36,11.09,3.83,16.56.42,1.55,2.83.89,2.41-.66h0Z"/>
  <path class="cls-1" d="M151.26,61.77v-26.86c-.7.29-1.41.59-2.12.88,6.66,6.69,12.42,14.2,17.17,22.36.81,1.39,2.97.13,2.16-1.26-4.85-8.34-10.75-16.03-17.56-22.87-.76-.77-2.13-.2-2.13.88v26.86c-.01,1.61,2.49,1.61,2.49,0h0Z"/>
  <path class="cls-1" d="M151.59,51.23h12.58c1.61,0,1.61-2.5,0-2.5h-12.58c-1.61,0-1.61,2.5,0,2.5h0Z"/>
  <path class="cls-1" d="M177.02,63.2c.67-7.71.1-15.47-1.66-23.01l-2.09,1.22c2.28,2.4,4.72,4.65,7.33,6.7s5.23,4.04,8.11,5.52c1.12.58,2.32.24,2.74-1.02.54-1.61.63-3.52.92-5.19.64-3.74,1.29-7.48,1.93-11.21l-2.46-.33c.58,9.79,1.17,19.58,1.75,29.37.1,1.6,2.6,1.61,2.5,0-.58-9.79-1.17-19.58-1.75-29.37-.08-1.32-2.2-1.8-2.46-.33-.53,3.09-1.06,6.18-1.59,9.26-.28,1.63-.56,3.25-.84,4.88-.06.33-.11.65-.17.98-.04.24-.08.49-.13.73-.13.32,0,.37.38.16.97,0-.07-.37-.34-.53-.32-.19-.63-.38-.94-.57-4.86-3.01-9.29-6.66-13.22-10.81-.89-.94-2.36.04-2.09,1.22,1.71,7.33,2.23,14.85,1.57,22.35-.14,1.6,2.36,1.59,2.5,0h0Z"/>
  <path class="cls-1" d="M207.02,38.43c-.48,2.98-.8,5.98-.92,9-.1,2.7-.23,5.58.22,8.26.38,2.26,1.92,3.93,4.25,4.16,2.06.2,4.12-.64,5.88-1.64,2.36-1.34,4.58-2.94,6.62-4.71,1.82-1.58,3.6-3.36,4.72-5.52s1.62-4.92.7-7.29c-.76-1.98-2.34-3.44-4.24-4.31-2.27-1.04-4.76-1.37-7.22-1.66-3.2-.37-6.47-.54-9.55.56-1.51.54-.86,2.95.66,2.41,2.25-.8,4.58-.85,6.94-.66,1.94.15,3.91.37,5.81.84,1.6.39,3.27,1,4.4,2.26,1.34,1.51,1.42,3.62.83,5.47-.63,1.94-2.03,3.53-3.47,4.92-1.61,1.55-3.37,2.94-5.23,4.18-1.97,1.3-7.76,5.02-8.62.66-.49-2.52-.29-5.36-.19-7.91.11-2.79.38-5.57.83-8.33.25-1.57-2.16-2.25-2.41-.66h0Z"/>
  <path class="cls-1" d="M244.04,30.88l-11.17.14c-1.19.02-1.77,1.75-.63,2.33,3.12,1.59,6.51,2.49,9.73,3.86,2.54,1.08,5.15,2.6,6.74,4.92.56.81,1.89,2.76.8,3.53-1.2.85-2.79,1.34-4.19,1.72-3.21.86-6.57.82-9.76-.07-1.55-.43-2.21,1.98-.66,2.41,2.93.82,5.97.98,8.97.52,1.43-.22,2.84-.59,4.19-1.12,1.25-.49,2.76-1.03,3.66-2.07,1.9-2.19-.23-5.6-1.76-7.37-1.71-1.99-4.03-3.43-6.41-4.49-3.29-1.46-6.81-2.35-10.03-3.99l-.63,2.33,11.17-.14c1.61-.02,1.61-2.52,0-2.5h0Z"/>
</svg>